<svg xmlns='http://www.w3.org/2000/svg' xmlns:xlink='http://www.w3.org/1999/xlink'
 width="574.75" height="693.5"><g transform="translate(10, 10)"><g><path d="M 0 640 C 0 600 0 600 0 560 L 0 480 L 0 400 L 0 320 L 0 240 L 0 160 L 0 80 C 0 40 0 40 0 0" fill="transparent" stroke="green" stroke-width="10" transform="translate(14, 14)"></path><path d="M 0 640 C 0 600 50 600 50 560 L 50 480 L 50 400 L 50 320 L 50 240 L 50 160 C 50 120 0 120 0 80" fill="transparent" stroke="cornflowerblue" stroke-width="10" transform="translate(14, 14)"></path><path d="M 0 640 C 0 600 100 600 100 560 L 100 480 L 100 400 L 100 320 L 100 240 L 100 160 L 100 80 C 100 40 0 40 0 0" fill="transparent" stroke="purple" stroke-width="10" transform="translate(14, 14)"></path></g><g><g transform="translate(0, 640)"><g><defs><circle cx="14" cy="14" r="14" id="9332c4f0b36f764358d354625b4ae37c78197218" fill="green"></circle><clipPath id="clip-9332c4f0b36f764358d354625b4ae37c78197218"><use href="#9332c4f0b36f764358d354625b4ae37c78197218" xlink:href="#9332c4f0b36f764358d354625b4ae37c78197218"></use></clipPath></defs><use href="#9332c4f0b36f764358d354625b4ae37c78197218" xlink:href="#9332c4f0b36f764358d354625b4ae37c78197218" clip-path="url(#clip-9332c4f0b36f764358d354625b4ae37c78197218)" stroke="" stroke-width="0"></use></g><g transform="translate(0, 0)"><g transform="translate(150, 14)"><text alignment-baseline="central" dominant-baseline="central" fill="green" style="font: normal 14pt Arial">9332c4f Initial commit</text></g></g></g><g transform="translate(50, 560)"><g><defs><circle cx="14" cy="14" r="14" id="3e0a262ebc43c4479d10a6dcc4c3507d102d85ff" fill="cornflowerblue"></circle><clipPath id="clip-3e0a262ebc43c4479d10a6dcc4c3507d102d85ff"><use href="#3e0a262ebc43c4479d10a6dcc4c3507d102d85ff" xlink:href="#3e0a262ebc43c4479d10a6dcc4c3507d102d85ff"></use></clipPath></defs><use href="#3e0a262ebc43c4479d10a6dcc4c3507d102d85ff" xlink:href="#3e0a262ebc43c4479d10a6dcc4c3507d102d85ff" clip-path="url(#clip-3e0a262ebc43c4479d10a6dcc4c3507d102d85ff)" stroke="" stroke-width="0"></use></g><g transform="translate(-50, 0)"><g transform="translate(150, 14)"><text alignment-baseline="central" dominant-baseline="central" fill="cornflowerblue" style="font: normal 14pt Arial">3e0a262 Add some changes</text></g></g></g><g transform="translate(50, 480)"><g><defs><circle cx="14" cy="14" r="14" id="b44a81eaeb71eb77d9b581161c8507de54b5644b" fill="cornflowerblue"></circle><clipPath id="clip-b44a81eaeb71eb77d9b581161c8507de54b5644b"><use href="#b44a81eaeb71eb77d9b581161c8507de54b5644b" xlink:href="#b44a81eaeb71eb77d9b581161c8507de54b5644b"></use></clipPath></defs><use href="#b44a81eaeb71eb77d9b581161c8507de54b5644b" xlink:href="#b44a81eaeb71eb77d9b581161c8507de54b5644b" clip-path="url(#clip-b44a81eaeb71eb77d9b581161c8507de54b5644b)" stroke="" stroke-width="0"></use></g><g transform="translate(-50, 0)"><g transform="translate(150, 14)"><text alignment-baseline="central" dominant-baseline="central" fill="cornflowerblue" style="font: normal 14pt Arial">b44a81e Make more changes</text></g></g></g><g transform="translate(50, 400)"><g><defs><circle cx="14" cy="14" r="14" id="a9a0913c5dc7886456ef0f05c67839cf70df1a1a" fill="cornflowerblue"></circle><clipPath id="clip-a9a0913c5dc7886456ef0f05c67839cf70df1a1a"><use href="#a9a0913c5dc7886456ef0f05c67839cf70df1a1a" xlink:href="#a9a0913c5dc7886456ef0f05c67839cf70df1a1a"></use></clipPath></defs><use href="#a9a0913c5dc7886456ef0f05c67839cf70df1a1a" xlink:href="#a9a0913c5dc7886456ef0f05c67839cf70df1a1a" clip-path="url(#clip-a9a0913c5dc7886456ef0f05c67839cf70df1a1a)" stroke="" stroke-width="0"></use></g><g transform="translate(-50, 0)"><g transform="translate(220.46875, 14)"><text alignment-baseline="central" dominant-baseline="central" fill="cornflowerblue" style="font: normal 14pt Arial">a9a0913 Almost done</text></g><g transform="translate(150, 0)"><g><rect width="60.46875" height="31" rx="10" fill="white" stroke="cornflowerblue"></rect><text alignment-baseline="central" dominant-baseline="central" fill="cornflowerblue" style="font: normal 14pt Arial" x="10" y="15.5">chg1</text></g></g></g></g><g transform="translate(100, 320)"><g><defs><circle cx="14" cy="14" r="14" id="26e0d9f50bfca6587ed3768b1216cbb408c3d085" fill="purple"></circle><clipPath id="clip-26e0d9f50bfca6587ed3768b1216cbb408c3d085"><use href="#26e0d9f50bfca6587ed3768b1216cbb408c3d085" xlink:href="#26e0d9f50bfca6587ed3768b1216cbb408c3d085"></use></clipPath></defs><use href="#26e0d9f50bfca6587ed3768b1216cbb408c3d085" xlink:href="#26e0d9f50bfca6587ed3768b1216cbb408c3d085" clip-path="url(#clip-26e0d9f50bfca6587ed3768b1216cbb408c3d085)" stroke="" stroke-width="0"></use></g><g transform="translate(-100, 0)"><g transform="translate(150, 14)"><text alignment-baseline="central" dominant-baseline="central" fill="purple" style="font: normal 14pt Arial">26e0d9f Add some changes</text></g></g></g><g transform="translate(100, 240)"><g><defs><circle cx="14" cy="14" r="14" id="74959bf17dde9b92cfa41d5c8d1b06c43548274f" fill="purple"></circle><clipPath id="clip-74959bf17dde9b92cfa41d5c8d1b06c43548274f"><use href="#74959bf17dde9b92cfa41d5c8d1b06c43548274f" xlink:href="#74959bf17dde9b92cfa41d5c8d1b06c43548274f"></use></clipPath></defs><use href="#74959bf17dde9b92cfa41d5c8d1b06c43548274f" xlink:href="#74959bf17dde9b92cfa41d5c8d1b06c43548274f" clip-path="url(#clip-74959bf17dde9b92cfa41d5c8d1b06c43548274f)" stroke="" stroke-width="0"></use></g><g transform="translate(-100, 0)"><g transform="translate(150, 14)"><text alignment-baseline="central" dominant-baseline="central" fill="purple" style="font: normal 14pt Arial">74959bf Make more changes</text></g></g></g><g transform="translate(100, 160)"><g><defs><circle cx="14" cy="14" r="14" id="4b1eddc2958fc543a352250285587816048355df" fill="purple"></circle><clipPath id="clip-4b1eddc2958fc543a352250285587816048355df"><use href="#4b1eddc2958fc543a352250285587816048355df" xlink:href="#4b1eddc2958fc543a352250285587816048355df"></use></clipPath></defs><use href="#4b1eddc2958fc543a352250285587816048355df" xlink:href="#4b1eddc2958fc543a352250285587816048355df" clip-path="url(#clip-4b1eddc2958fc543a352250285587816048355df)" stroke="" stroke-width="0"></use></g><g transform="translate(-100, 0)"><g transform="translate(220.46875, 14)"><text alignment-baseline="central" dominant-baseline="central" fill="purple" style="font: normal 14pt Arial">4b1eddc Almost done</text></g><g transform="translate(150, 0)"><g><rect width="60.46875" height="31" rx="10" fill="white" stroke="purple"></rect><text alignment-baseline="central" dominant-baseline="central" fill="purple" style="font: normal 14pt Arial" x="10" y="15.5">chg2</text></g></g></g></g><g transform="translate(0, 80)"><g><defs><circle cx="14" cy="14" r="14" id="d11b18033e8e8073b809615d91e711811733d58e" fill="green"></circle><clipPath id="clip-d11b18033e8e8073b809615d91e711811733d58e"><use href="#d11b18033e8e8073b809615d91e711811733d58e" xlink:href="#d11b18033e8e8073b809615d91e711811733d58e"></use></clipPath></defs><use href="#d11b18033e8e8073b809615d91e711811733d58e" xlink:href="#d11b18033e8e8073b809615d91e711811733d58e" clip-path="url(#clip-d11b18033e8e8073b809615d91e711811733d58e)" stroke="" stroke-width="0"></use></g><g transform="translate(0, 0)"><g transform="translate(228.3125, 14)"><text alignment-baseline="central" dominant-baseline="central" fill="green" style="font: normal 14pt Arial">d11b180 Merge branch chg1</text></g><g transform="translate(150, 14)" data-offset="12"><g><path d="M 0,0 L 12,15.5 V 15.5 Q 12,15.5 22,15.5 H 58.3125 Q 68.3125,15.5 68.3125,5.5 V -5.5 Q 68.3125,-15.5 58.3125,-15.5 H 22 Q 12,-15.5 12,-15.5 V -15.5 z" fill="green" stroke="green"></path><text alignment-baseline="central" dominant-baseline="central" fill="white" style="font: normal 14pt Arial" x="22" y="0">PR1</text></g></g></g></g><g transform="translate(0, 0)"><g><defs><circle cx="14" cy="14" r="14" id="98750db83c25ce56a3075d4a28ee70fd9ee93d19" fill="green"></circle><clipPath id="clip-98750db83c25ce56a3075d4a28ee70fd9ee93d19"><use href="#98750db83c25ce56a3075d4a28ee70fd9ee93d19" xlink:href="#98750db83c25ce56a3075d4a28ee70fd9ee93d19"></use></clipPath></defs><use href="#98750db83c25ce56a3075d4a28ee70fd9ee93d19" xlink:href="#98750db83c25ce56a3075d4a28ee70fd9ee93d19" clip-path="url(#clip-98750db83c25ce56a3075d4a28ee70fd9ee93d19)" stroke="" stroke-width="0"></use></g><g transform="translate(0, 0)"><g transform="translate(316.140625, 14)"><text alignment-baseline="central" dominant-baseline="central" fill="green" style="font: normal 14pt Arial">98750db Merge branch chg2</text></g><g transform="translate(150, 0)"><g><rect width="77.828125" height="31" rx="10" fill="white" stroke="green"></rect><text alignment-baseline="central" dominant-baseline="central" fill="green" style="font: normal 14pt Arial" x="10" y="15.5">master</text></g></g><g transform="translate(237.828125, 14)" data-offset="12"><g><path d="M 0,0 L 12,15.5 V 15.5 Q 12,15.5 22,15.5 H 58.3125 Q 68.3125,15.5 68.3125,5.5 V -5.5 Q 68.3125,-15.5 58.3125,-15.5 H 22 Q 12,-15.5 12,-15.5 V -15.5 z" fill="green" stroke="green"></path><text alignment-baseline="central" dominant-baseline="central" fill="white" style="font: normal 14pt Arial" x="22" y="0">PR2</text></g></g></g></g></g></g></svg>