<?xml version="1.0" encoding="UTF-8" standalone="no"?>
<!DOCTYPE svg PUBLIC "-//W3C//DTD SVG 1.1//EN" "http://www.w3.org/Graphics/SVG/1.1/DTD/svg11.dtd">
<!-- Generated by Microsoft Visio, SVG Export git structure-commit.svg Commit -->
<svg xmlns="http://www.w3.org/2000/svg" xmlns:xlink="http://www.w3.org/1999/xlink" xmlns:ev="http://www.w3.org/2001/xml-events"
		xmlns:v="http://schemas.microsoft.com/visio/2003/SVGExtensions/" width="11in" height="8.5in" viewBox="0 0 792 612"
		xml:space="preserve" color-interpolation-filters="sRGB" class="st13">
	<v:documentProperties v:langID="1033" v:viewMarkup="false">
		<v:userDefs>
			<v:ud v:nameU="msvSubprocessMaster" v:prompt="" v:val="VT4(Box)"/>
			<v:ud v:nameU="msvNoAutoConnect" v:val="VT0(1):26"/>
		</v:userDefs>
	</v:documentProperties>

	<style type="text/css">
	<![CDATA[
		.st1 {fill:#42829e;stroke:none;stroke-linecap:butt;stroke-width:0.75}
		.st2 {fill:#42829e;font-family:Calibri;font-size:1.00001em}
		.st3 {fill:#42829e;stroke:none;stroke-linecap:round;stroke-linejoin:round;stroke-width:6.375}
		.st4 {fill:#ffffff;font-family:Calibri;font-size:1.5em}
		.st5 {fill:#ffffff;font-family:Calibri;font-size:1.00001em}
		.st6 {fill:#73ae42;stroke:none;stroke-linecap:round;stroke-linejoin:round;stroke-width:6.375}
		.st7 {fill:#5e9035;stroke:none;stroke-linecap:butt;stroke-width:0.75}
		.st8 {fill:#849e33;font-family:Calibri;font-size:1.00001em}
		.st9 {font-size:1em}
		.st10 {stroke:#5692c9;stroke-linecap:round;stroke-linejoin:round;stroke-width:0.5}
		.st11 {marker-end:url(#mrkr4-127);stroke:#625986;stroke-dasharray:2.25,4.5;stroke-linecap:round;stroke-linejoin:round;stroke-width:2.25}
		.st12 {fill:#625986;fill-opacity:1;stroke:#625986;stroke-opacity:1;stroke-width:0.47169811320755}
		.st13 {fill:none;fill-rule:evenodd;font-size:12px;overflow:visible;stroke-linecap:square;stroke-miterlimit:3}
	]]>
	</style>

	<defs id="Markers">
		<g id="lend4">
			<path d="M 2 1 L 0 0 L 2 -1 L 2 1 " style="stroke:none"/>
		</g>
		<marker id="mrkr4-127" class="st12" v:arrowType="4" v:arrowSize="2" v:setback="4.24" refX="-4.24" orient="auto"
				markerUnits="strokeWidth" overflow="visible">
			<use xlink:href="#lend4" transform="scale(-2.12,-2.12) "/>
		</marker>
	</defs>
	<g v:mID="6" v:index="1" v:groupContext="foregroundPage">
		<v:userDefs>
			<v:ud v:nameU="msvThemeOrder" v:val="VT0(0):26"/>
		</v:userDefs>
		<title>Commit</title>
		<v:pageProperties v:drawingScale="1" v:pageScale="1" v:drawingUnits="0" v:shadowOffsetX="9" v:shadowOffsetY="-9"/>
		<v:layer v:name="Connector" v:index="0"/>
		<g id="shape30-1" v:mID="30" v:groupContext="shape" transform="translate(711.755,-380.25)">
			<title>Document.30</title>
			<desc>HEAD</desc>
			<v:userDefs>
				<v:ud v:nameU="msvShapeCategories" v:prompt="" v:val="VT4(Icon)"/>
				<v:ud v:nameU="visVersion" v:prompt="" v:val="VT0(15):26"/>
			</v:userDefs>
			<v:textBlock v:margins="rect(2,2,2,2)" v:verticalAlign="0"/>
			<v:textRect cx="23.2474" cy="617.72" width="41.97" height="8.39255"/>
			<path d="M8.94 599.48 L8.94 597.69 L37.55 597.69 L37.55 599.48 L8.94 599.48 ZM8.94 592.33 L8.94 590.54 L37.55 590.54
						 L37.55 592.33 L8.94 592.33 ZM8.94 585.18 L8.94 583.39 L37.55 583.39 L37.55 585.18 L8.94 585.18 ZM8.94 578.02
						 L8.94 576.23 L37.55 576.23 L37.55 578.02 L8.94 578.02 ZM8.94 570.87 L8.94 569.08 L26.89 569.08 L26.89 570.87
						 L8.94 570.87 ZM42.92 608.42 L42.92 569.08 L32.19 569.08 L32.19 558.35 L3.58 558.35 L3.58 608.42 L42.92 608.42
						 ZM42.47 567.29 L33.98 558.8 L33.98 567.29 L42.47 567.29 ZM35.32 554.78 L46.49 565.95 L46.49 612 L0 612 L0
						 554.78 L35.32 554.78 Z" class="st1"/>
			<text x="9.42" y="626.32" class="st2" v:langID="1033"><v:paragraph v:horizAlign="1"/><v:tabList/>HEAD</text>		</g>
		<g id="group44-4" transform="translate(329.947,-490.222)" v:mID="44" v:groupContext="group">
			<title>Folder</title>
			<g id="shape45-5" v:mID="45" v:groupContext="shape">
				<title>Sheet.45</title>
				<desc>.git</desc>
				<v:textBlock v:margins="rect(4,4,4,4)"/>
				<v:textRect cx="65.6517" cy="561.128" width="131.31" height="101.745"/>
				<path d="M124.21 612 C128.11 612 131.3 608.73 131.3 604.73 L131.3 532.06 C131.3 528.06 128.11 524.79 124.21 524.79
							 L63.88 524.79 L44.36 511.53 C43.29 510.62 41.88 510.26 40.46 510.26 L7.1 510.26 C3.19 510.26 0 513.53
							 0 517.52 L0 604.73 C0 608.73 3.19 612 7.1 612 L124.21 612 Z" class="st3"/>
				<text x="54.06" y="566.53" class="st4" v:langID="1033"><v:paragraph v:horizAlign="1"/><v:tabList/>.git</text>			</g>
			<g id="shape44-8" v:mID="44" v:groupContext="groupContent">
				<v:textBlock v:margins="rect(4,4,4,4)"/>
			</g>
		</g>
		<g id="group48-9" transform="translate(20.0537,-381.742)" v:mID="48" v:groupContext="group">
			<title>Folder.48</title>
			<g id="shape49-10" v:mID="49" v:groupContext="shape">
				<title>Sheet.49</title>
				<desc>hooks</desc>
				<v:textBlock v:margins="rect(4,4,4,4)"/>
				<v:textRect cx="34.9988" cy="584.88" width="70" height="54.2401"/>
				<path d="M66.21 612 C68.29 612 70 610.26 70 608.13 L70 569.38 C70 567.25 68.29 565.51 66.21 565.51 L34.05 565.51
							 L23.65 558.44 C23.08 557.95 22.32 557.76 21.57 557.76 L3.78 557.76 C1.7 557.76 0 559.5 0 561.63 L0 608.13
							 C0 610.26 1.7 612 3.78 612 L66.21 612 Z" class="st3"/>
				<text x="20.44" y="588.48" class="st5" v:langID="1033"><v:paragraph v:horizAlign="1"/><v:tabList/>hooks</text>			</g>
		</g>
		<g id="group54-13" transform="translate(204.731,-381.742)" v:mID="54" v:groupContext="group">
			<title>Folder.54</title>
			<g id="shape55-14" v:mID="55" v:groupContext="shape">
				<title>Sheet.55</title>
				<desc>objects</desc>
				<v:textBlock v:margins="rect(4,4,4,4)"/>
				<v:textRect cx="34.9988" cy="584.88" width="70" height="54.2401"/>
				<path d="M66.21 612 C68.29 612 70 610.26 70 608.13 L70 569.38 C70 567.25 68.29 565.51 66.21 565.51 L34.05 565.51
							 L23.65 558.44 C23.08 557.95 22.32 557.76 21.57 557.76 L3.78 557.76 C1.7 557.76 0 559.5 0 561.63 L0 608.13
							 C0 610.26 1.7 612 3.78 612 L66.21 612 Z" class="st3"/>
				<text x="17.37" y="588.48" class="st5" v:langID="1033"><v:paragraph v:horizAlign="1"/><v:tabList/>objects</text>			</g>
		</g>
		<g id="group57-17" transform="translate(481.746,-381.742)" v:mID="57" v:groupContext="group">
			<title>Folder.57</title>
			<g id="shape58-18" v:mID="58" v:groupContext="shape">
				<title>Sheet.58</title>
				<desc>refs</desc>
				<v:textBlock v:margins="rect(4,4,4,4)"/>
				<v:textRect cx="34.9988" cy="584.88" width="70" height="54.2401"/>
				<path d="M66.21 612 C68.29 612 70 610.26 70 608.13 L70 569.38 C70 567.25 68.29 565.51 66.21 565.51 L34.05 565.51
							 L23.65 558.44 C23.08 557.95 22.32 557.76 21.57 557.76 L3.78 557.76 C1.7 557.76 0 559.5 0 561.63 L0 608.13
							 C0 610.26 1.7 612 3.78 612 L66.21 612 Z" class="st3"/>
				<text x="25.74" y="588.48" class="st5" v:langID="1033"><v:paragraph v:horizAlign="1"/><v:tabList/>refs</text>			</g>
		</g>
		<g id="shape60-21" v:mID="60" v:groupContext="shape" transform="translate(574.084,-380.25)">
			<title>Document.60</title>
			<desc>config</desc>
			<v:userDefs>
				<v:ud v:nameU="msvShapeCategories" v:prompt="" v:val="VT4(Icon)"/>
				<v:ud v:nameU="visVersion" v:prompt="" v:val="VT0(15):26"/>
			</v:userDefs>
			<v:textBlock v:margins="rect(2,2,2,2)" v:verticalAlign="0"/>
			<v:textRect cx="23.2474" cy="617.72" width="41.97" height="8.39255"/>
			<path d="M8.94 599.48 L8.94 597.69 L37.55 597.69 L37.55 599.48 L8.94 599.48 ZM8.94 592.33 L8.94 590.54 L37.55 590.54
						 L37.55 592.33 L8.94 592.33 ZM8.94 585.18 L8.94 583.39 L37.55 583.39 L37.55 585.18 L8.94 585.18 ZM8.94 578.02
						 L8.94 576.23 L37.55 576.23 L37.55 578.02 L8.94 578.02 ZM8.94 570.87 L8.94 569.08 L26.89 569.08 L26.89 570.87
						 L8.94 570.87 ZM42.92 608.42 L42.92 569.08 L32.19 569.08 L32.19 558.35 L3.58 558.35 L3.58 608.42 L42.92 608.42
						 ZM42.47 567.29 L33.98 558.8 L33.98 567.29 L42.47 567.29 ZM35.32 554.78 L46.49 565.95 L46.49 612 L0 612 L0
						 554.78 L35.32 554.78 Z" class="st1"/>
			<text x="8.36" y="626.32" class="st2" v:langID="1033"><v:paragraph v:horizAlign="1"/><v:tabList/>config</text>		</g>
		<g id="shape88-24" v:mID="88" v:groupContext="shape" transform="translate(31.8051,-267.417)">
			<title>Document.88</title>
			<desc>*.sample</desc>
			<v:userDefs>
				<v:ud v:nameU="msvShapeCategories" v:prompt="" v:val="VT4(Icon)"/>
				<v:ud v:nameU="visVersion" v:prompt="" v:val="VT0(15):26"/>
			</v:userDefs>
			<v:textBlock v:margins="rect(2,2,2,2)" v:verticalAlign="0"/>
			<v:textRect cx="23.2474" cy="617.72" width="70" height="8.39255"/>
			<path d="M8.94 599.48 L8.94 597.69 L37.55 597.69 L37.55 599.48 L8.94 599.48 ZM8.94 592.33 L8.94 590.54 L37.55 590.54
						 L37.55 592.33 L8.94 592.33 ZM8.94 585.18 L8.94 583.39 L37.55 583.39 L37.55 585.18 L8.94 585.18 ZM8.94 578.02
						 L8.94 576.23 L37.55 576.23 L37.55 578.02 L8.94 578.02 ZM8.94 570.87 L8.94 569.08 L26.89 569.08 L26.89 570.87
						 L8.94 570.87 ZM42.92 608.42 L42.92 569.08 L32.19 569.08 L32.19 558.35 L3.58 558.35 L3.58 608.42 L42.92 608.42
						 ZM42.47 567.29 L33.98 558.8 L33.98 567.29 L42.47 567.29 ZM35.32 554.78 L46.49 565.95 L46.49 612 L0 612 L0
						 554.78 L35.32 554.78 Z" class="st1"/>
			<text x="1.22" y="626.32" class="st2" v:langID="1033"><v:paragraph v:horizAlign="1"/><v:tabList/>*.sample</text>		</g>
		<g id="group89-27" transform="translate(112.392,-381.742)" v:mID="89" v:groupContext="group">
			<title>Folder.89</title>
			<g id="shape90-28" v:mID="90" v:groupContext="shape">
				<title>Sheet.90</title>
				<desc>logs</desc>
				<v:textBlock v:margins="rect(4,4,4,4)"/>
				<v:textRect cx="34.9988" cy="584.88" width="70" height="54.2401"/>
				<path d="M66.21 612 C68.29 612 70 610.26 70 608.13 L70 569.38 C70 567.25 68.29 565.51 66.21 565.51 L34.05 565.51
							 L23.65 558.44 C23.08 557.95 22.32 557.76 21.57 557.76 L3.78 557.76 C1.7 557.76 0 559.5 0 561.63 L0 608.13
							 C0 610.26 1.7 612 3.78 612 L66.21 612 Z" class="st6"/>
				<text x="25.29" y="588.48" class="st5" v:langID="1033"><v:paragraph v:horizAlign="1"/><v:tabList/>logs</text>			</g>
			<g id="shape89-31" v:mID="89" v:groupContext="groupContent">
				<v:textBlock v:margins="rect(4,4,4,4)"/>
			</g>
		</g>
		<g id="group91-32" transform="translate(204.731,-268.909)" v:mID="91" v:groupContext="group">
			<title>Folder.91</title>
			<g id="shape92-33" v:mID="92" v:groupContext="shape">
				<title>Sheet.92</title>
				<desc>3b</desc>
				<v:textBlock v:margins="rect(4,4,4,4)"/>
				<v:textRect cx="34.9988" cy="584.88" width="70" height="54.2401"/>
				<path d="M66.21 612 C68.29 612 70 610.26 70 608.13 L70 569.38 C70 567.25 68.29 565.51 66.21 565.51 L34.05 565.51
							 L23.65 558.44 C23.08 557.95 22.32 557.76 21.57 557.76 L3.78 557.76 C1.7 557.76 0 559.5 0 561.63 L0 608.13
							 C0 610.26 1.7 612 3.78 612 L66.21 612 Z" class="st3"/>
				<text x="28.81" y="588.48" class="st5" v:langID="1033"><v:paragraph v:horizAlign="1"/><v:tabList/>3b</text>			</g>
		</g>
		<g id="group93-36" transform="translate(297.069,-268.909)" v:mID="93" v:groupContext="group">
			<title>Folder.93</title>
			<g id="shape94-37" v:mID="94" v:groupContext="shape">
				<title>Sheet.94</title>
				<desc>d0</desc>
				<v:textBlock v:margins="rect(4,4,4,4)"/>
				<v:textRect cx="34.9988" cy="584.88" width="70" height="54.2401"/>
				<path d="M66.21 612 C68.29 612 70 610.26 70 608.13 L70 569.38 C70 567.25 68.29 565.51 66.21 565.51 L34.05 565.51
							 L23.65 558.44 C23.08 557.95 22.32 557.76 21.57 557.76 L3.78 557.76 C1.7 557.76 0 559.5 0 561.63 L0 608.13
							 C0 610.26 1.7 612 3.78 612 L66.21 612 Z" class="st6"/>
				<text x="28.81" y="588.48" class="st5" v:langID="1033"><v:paragraph v:horizAlign="1"/><v:tabList/>d0</text>			</g>
		</g>
		<g id="group95-40" transform="translate(389.407,-268.909)" v:mID="95" v:groupContext="group">
			<title>Folder.95</title>
			<g id="shape96-41" v:mID="96" v:groupContext="shape">
				<title>Sheet.96</title>
				<desc>80</desc>
				<v:textBlock v:margins="rect(4,4,4,4)"/>
				<v:textRect cx="34.9988" cy="584.88" width="70" height="54.2401"/>
				<path d="M66.21 612 C68.29 612 70 610.26 70 608.13 L70 569.38 C70 567.25 68.29 565.51 66.21 565.51 L34.05 565.51
							 L23.65 558.44 C23.08 557.95 22.32 557.76 21.57 557.76 L3.78 557.76 C1.7 557.76 0 559.5 0 561.63 L0 608.13
							 C0 610.26 1.7 612 3.78 612 L66.21 612 Z" class="st6"/>
				<text x="28.92" y="588.48" class="st5" v:langID="1033"><v:paragraph v:horizAlign="1"/><v:tabList/>80</text>			</g>
		</g>
		<g id="shape98-44" v:mID="98" v:groupContext="shape" transform="translate(642.92,-380.25)">
			<title>Document.98</title>
			<desc>index</desc>
			<v:userDefs>
				<v:ud v:nameU="msvShapeCategories" v:prompt="" v:val="VT4(Icon)"/>
				<v:ud v:nameU="visVersion" v:prompt="" v:val="VT0(15):26"/>
			</v:userDefs>
			<v:textBlock v:margins="rect(2,2,2,2)" v:verticalAlign="0"/>
			<v:textRect cx="23.2474" cy="617.72" width="41.97" height="8.39255"/>
			<path d="M8.94 599.48 L8.94 597.69 L37.55 597.69 L37.55 599.48 L8.94 599.48 ZM8.94 592.33 L8.94 590.54 L37.55 590.54
						 L37.55 592.33 L8.94 592.33 ZM8.94 585.18 L8.94 583.39 L37.55 583.39 L37.55 585.18 L8.94 585.18 ZM8.94 578.02
						 L8.94 576.23 L37.55 576.23 L37.55 578.02 L8.94 578.02 ZM8.94 570.87 L8.94 569.08 L26.89 569.08 L26.89 570.87
						 L8.94 570.87 ZM42.92 608.42 L42.92 569.08 L32.19 569.08 L32.19 558.35 L3.58 558.35 L3.58 608.42 L42.92 608.42
						 ZM42.47 567.29 L33.98 558.8 L33.98 567.29 L42.47 567.29 ZM35.32 554.78 L46.49 565.95 L46.49 612 L0 612 L0
						 554.78 L35.32 554.78 Z" class="st1"/>
			<text x="9.98" y="626.32" class="st2" v:langID="1033"><v:paragraph v:horizAlign="1"/><v:tabList/>index</text>		</g>
		<g id="group101-47" transform="translate(113.947,-268.909)" v:mID="101" v:groupContext="group">
			<title>Folder.101</title>
			<g id="shape102-48" v:mID="102" v:groupContext="shape">
				<title>Sheet.102</title>
				<desc>refs</desc>
				<v:textBlock v:margins="rect(4,4,4,4)"/>
				<v:textRect cx="34.9988" cy="584.88" width="70" height="54.2401"/>
				<path d="M66.21 612 C68.29 612 70 610.26 70 608.13 L70 569.38 C70 567.25 68.29 565.51 66.21 565.51 L34.05 565.51
							 L23.65 558.44 C23.08 557.95 22.32 557.76 21.57 557.76 L3.78 557.76 C1.7 557.76 0 559.5 0 561.63 L0 608.13
							 C0 610.26 1.7 612 3.78 612 L66.21 612 Z" class="st6"/>
				<text x="25.74" y="588.48" class="st5" v:langID="1033"><v:paragraph v:horizAlign="1"/><v:tabList/>refs</text>			</g>
		</g>
		<g id="group104-51" transform="translate(113.947,-156.077)" v:mID="104" v:groupContext="group">
			<title>Folder.104</title>
			<g id="shape105-52" v:mID="105" v:groupContext="shape">
				<title>Sheet.105</title>
				<desc>heads</desc>
				<v:textBlock v:margins="rect(4,4,4,4)"/>
				<v:textRect cx="34.9988" cy="584.88" width="70" height="54.2401"/>
				<path d="M66.21 612 C68.29 612 70 610.26 70 608.13 L70 569.38 C70 567.25 68.29 565.51 66.21 565.51 L34.05 565.51
							 L23.65 558.44 C23.08 557.95 22.32 557.76 21.57 557.76 L3.78 557.76 C1.7 557.76 0 559.5 0 561.63 L0 608.13
							 C0 610.26 1.7 612 3.78 612 L66.21 612 Z" class="st6"/>
				<text x="20.49" y="588.48" class="st5" v:langID="1033"><v:paragraph v:horizAlign="1"/><v:tabList/>heads</text>			</g>
		</g>
		<g id="shape109-55" v:mID="109" v:groupContext="shape" transform="translate(125.698,-40.2599)">
			<title>Document.109</title>
			<desc>master</desc>
			<v:userDefs>
				<v:ud v:nameU="msvShapeCategories" v:prompt="" v:val="VT4(Icon)"/>
				<v:ud v:nameU="visVersion" v:prompt="" v:val="VT0(15):26"/>
			</v:userDefs>
			<v:textBlock v:margins="rect(2,2,2,2)" v:verticalAlign="0"/>
			<v:textRect cx="23.2474" cy="617.72" width="41.97" height="8.39255"/>
			<path d="M8.94 599.48 L8.94 597.69 L37.55 597.69 L37.55 599.48 L8.94 599.48 ZM8.94 592.33 L8.94 590.54 L37.55 590.54
						 L37.55 592.33 L8.94 592.33 ZM8.94 585.18 L8.94 583.39 L37.55 583.39 L37.55 585.18 L8.94 585.18 ZM8.94 578.02
						 L8.94 576.23 L37.55 576.23 L37.55 578.02 L8.94 578.02 ZM8.94 570.87 L8.94 569.08 L26.89 569.08 L26.89 570.87
						 L8.94 570.87 ZM42.92 608.42 L42.92 569.08 L32.19 569.08 L32.19 558.35 L3.58 558.35 L3.58 608.42 L42.92 608.42
						 ZM42.47 567.29 L33.98 558.8 L33.98 567.29 L42.47 567.29 ZM35.32 554.78 L46.49 565.95 L46.49 612 L0 612 L0
						 554.78 L35.32 554.78 Z" class="st7"/>
			<text x="6.15" y="626.32" class="st8" v:langID="1033"><v:paragraph v:horizAlign="1"/><v:tabList/>master</text>		</g>
		<g id="shape110-58" v:mID="110" v:groupContext="shape" transform="translate(216.482,-154.585)">
			<title>Document.110</title>
			<desc>18e5...ad (blob)</desc>
			<v:userDefs>
				<v:ud v:nameU="msvShapeCategories" v:prompt="" v:val="VT4(Icon)"/>
				<v:ud v:nameU="visVersion" v:prompt="" v:val="VT0(15):26"/>
			</v:userDefs>
			<v:textBlock v:margins="rect(2,2,2,2)" v:verticalAlign="0"/>
			<v:textRect cx="23.2474" cy="617.72" width="70" height="8.39255"/>
			<path d="M8.94 599.48 L8.94 597.69 L37.55 597.69 L37.55 599.48 L8.94 599.48 ZM8.94 592.33 L8.94 590.54 L37.55 590.54
						 L37.55 592.33 L8.94 592.33 ZM8.94 585.18 L8.94 583.39 L37.55 583.39 L37.55 585.18 L8.94 585.18 ZM8.94 578.02
						 L8.94 576.23 L37.55 576.23 L37.55 578.02 L8.94 578.02 ZM8.94 570.87 L8.94 569.08 L26.89 569.08 L26.89 570.87
						 L8.94 570.87 ZM42.92 608.42 L42.92 569.08 L32.19 569.08 L32.19 558.35 L3.58 558.35 L3.58 608.42 L42.92 608.42
						 ZM42.47 567.29 L33.98 558.8 L33.98 567.29 L42.47 567.29 ZM35.32 554.78 L46.49 565.95 L46.49 612 L0 612 L0
						 554.78 L35.32 554.78 Z" class="st1"/>
			<text x="0.57" y="626.32" class="st2" v:langID="1033"><v:paragraph v:horizAlign="1"/><v:tabList/>18e5...ad<v:newlineChar/><tspan
						x="8.76" dy="1.2em" class="st9">(blob)</tspan></text>		</g>
		<g id="shape111-62" v:mID="111" v:groupContext="shape" transform="translate(308.82,-154.585)">
			<title>Document.111</title>
			<desc>3dd3...77 (tree)</desc>
			<v:userDefs>
				<v:ud v:nameU="msvShapeCategories" v:prompt="" v:val="VT4(Icon)"/>
				<v:ud v:nameU="visVersion" v:prompt="" v:val="VT0(15):26"/>
			</v:userDefs>
			<v:textBlock v:margins="rect(2,2,2,2)" v:verticalAlign="0"/>
			<v:textRect cx="23.2474" cy="617.72" width="70" height="8.39255"/>
			<path d="M8.94 599.48 L8.94 597.69 L37.55 597.69 L37.55 599.48 L8.94 599.48 ZM8.94 592.33 L8.94 590.54 L37.55 590.54
						 L37.55 592.33 L8.94 592.33 ZM8.94 585.18 L8.94 583.39 L37.55 583.39 L37.55 585.18 L8.94 585.18 ZM8.94 578.02
						 L8.94 576.23 L37.55 576.23 L37.55 578.02 L8.94 578.02 ZM8.94 570.87 L8.94 569.08 L26.89 569.08 L26.89 570.87
						 L8.94 570.87 ZM42.92 608.42 L42.92 569.08 L32.19 569.08 L32.19 558.35 L3.58 558.35 L3.58 608.42 L42.92 608.42
						 ZM42.47 567.29 L33.98 558.8 L33.98 567.29 L42.47 567.29 ZM35.32 554.78 L46.49 565.95 L46.49 612 L0 612 L0
						 554.78 L35.32 554.78 Z" class="st7"/>
			<text x="0.23" y="626.32" class="st8" v:langID="1033"><v:paragraph v:horizAlign="1"/><v:tabList/>3dd3...77<v:newlineChar/><tspan
						x="9.54" dy="1.2em" class="st9">(tree)</tspan></text>		</g>
		<g id="shape113-66" v:mID="113" v:groupContext="shape" transform="translate(401.159,-154.585)">
			<title>Document.113</title>
			<desc>94ae...64 (commit)</desc>
			<v:userDefs>
				<v:ud v:nameU="msvShapeCategories" v:prompt="" v:val="VT4(Icon)"/>
				<v:ud v:nameU="visVersion" v:prompt="" v:val="VT0(15):26"/>
			</v:userDefs>
			<v:textBlock v:margins="rect(2,2,2,2)" v:verticalAlign="0"/>
			<v:textRect cx="23.2474" cy="617.72" width="70" height="8.39255"/>
			<path d="M8.94 599.48 L8.94 597.69 L37.55 597.69 L37.55 599.48 L8.94 599.48 ZM8.94 592.33 L8.94 590.54 L37.55 590.54
						 L37.55 592.33 L8.94 592.33 ZM8.94 585.18 L8.94 583.39 L37.55 583.39 L37.55 585.18 L8.94 585.18 ZM8.94 578.02
						 L8.94 576.23 L37.55 576.23 L37.55 578.02 L8.94 578.02 ZM8.94 570.87 L8.94 569.08 L26.89 569.08 L26.89 570.87
						 L8.94 570.87 ZM42.92 608.42 L42.92 569.08 L32.19 569.08 L32.19 558.35 L3.58 558.35 L3.58 608.42 L42.92 608.42
						 ZM42.47 567.29 L33.98 558.8 L33.98 567.29 L42.47 567.29 ZM35.32 554.78 L46.49 565.95 L46.49 612 L0 612 L0
						 554.78 L35.32 554.78 Z" class="st7"/>
			<text x="0.68" y="626.32" class="st8" v:langID="1033"><v:paragraph v:horizAlign="1"/><v:tabList/>94ae...64<v:newlineChar/><tspan
						x="0.93" dy="1.2em" class="st9">(commit)</tspan></text>		</g>
		<g id="group114-70" transform="translate(481.746,-268.909)" v:mID="114" v:groupContext="group">
			<title>Folder.114</title>
			<g id="shape115-71" v:mID="115" v:groupContext="shape">
				<title>Sheet.115</title>
				<desc>heads</desc>
				<v:textBlock v:margins="rect(4,4,4,4)"/>
				<v:textRect cx="34.9988" cy="584.88" width="70" height="54.2401"/>
				<path d="M66.21 612 C68.29 612 70 610.26 70 608.13 L70 569.38 C70 567.25 68.29 565.51 66.21 565.51 L34.05 565.51
							 L23.65 558.44 C23.08 557.95 22.32 557.76 21.57 557.76 L3.78 557.76 C1.7 557.76 0 559.5 0 561.63 L0 608.13
							 C0 610.26 1.7 612 3.78 612 L66.21 612 Z" class="st3"/>
				<text x="20.49" y="588.48" class="st5" v:langID="1033"><v:paragraph v:horizAlign="1"/><v:tabList/>heads</text>			</g>
		</g>
		<g id="shape116-74" v:mID="116" v:groupContext="shape" transform="translate(493.497,-154.585)">
			<title>Document.116</title>
			<desc>master</desc>
			<v:userDefs>
				<v:ud v:nameU="msvShapeCategories" v:prompt="" v:val="VT4(Icon)"/>
				<v:ud v:nameU="visVersion" v:prompt="" v:val="VT0(15):26"/>
			</v:userDefs>
			<v:textBlock v:margins="rect(2,2,2,2)" v:verticalAlign="0"/>
			<v:textRect cx="23.2474" cy="617.72" width="70" height="8.39255"/>
			<path d="M8.94 599.48 L8.94 597.69 L37.55 597.69 L37.55 599.48 L8.94 599.48 ZM8.94 592.33 L8.94 590.54 L37.55 590.54
						 L37.55 592.33 L8.94 592.33 ZM8.94 585.18 L8.94 583.39 L37.55 583.39 L37.55 585.18 L8.94 585.18 ZM8.94 578.02
						 L8.94 576.23 L37.55 576.23 L37.55 578.02 L8.94 578.02 ZM8.94 570.87 L8.94 569.08 L26.89 569.08 L26.89 570.87
						 L8.94 570.87 ZM42.92 608.42 L42.92 569.08 L32.19 569.08 L32.19 558.35 L3.58 558.35 L3.58 608.42 L42.92 608.42
						 ZM42.47 567.29 L33.98 558.8 L33.98 567.29 L42.47 567.29 ZM35.32 554.78 L46.49 565.95 L46.49 612 L0 612 L0
						 554.78 L35.32 554.78 Z" class="st7"/>
			<text x="6.15" y="626.32" class="st8" v:langID="1033"><v:paragraph v:horizAlign="1"/><v:tabList/>master</text>		</g>
		<g id="shape1000-77" v:mID="1000" v:groupContext="shape" transform="translate(1012.87,121.778) rotate(90)">
			<title>Multi-tree square.1000</title>
			<v:userDefs>
				<v:ud v:nameU="Scale" v:val="VT0(1):26"/>
				<v:ud v:nameU="AntiScale" v:val="VT0(1):26"/>
				<v:ud v:nameU="visVersion" v:val="VT0(15):26"/>
			</v:userDefs>
			<path d="M0 612 L22.22 612" class="st10"/>
			<path d="M22.22 612 L22.22 955.01 L61.99 955.01" class="st10"/>
			<path d="M22.22 612 L22.22 277.87 L52.75 277.87" class="st10"/>
			<path d="M22.22 612 L22.22 346.7 L52.75 346.7" class="st10"/>
			<path d="M22.22 612 L22.22 415.54 L52.75 415.54" class="st10"/>
			<path d="M22.22 612 L22.22 493.31 L61.99 493.31" class="st10"/>
			<path d="M22.22 612 L22.22 862.67 L61.99 862.67" class="st10"/>
		</g>
		<g id="shape1001-86" v:mID="1001" v:groupContext="shape" transform="translate(1012.87,121.778) rotate(90)">
			<title>Multi-tree square.1001</title>
			<v:userDefs>
				<v:ud v:nameU="Scale" v:val="VT0(1):26"/>
				<v:ud v:nameU="AntiScale" v:val="VT0(1):26"/>
				<v:ud v:nameU="visVersion" v:val="VT0(15):26"/>
			</v:userDefs>
			<path d="M0 612 L22.22 612" class="st10"/>
			<path d="M22.22 612 L22.22 770.33 L61.99 770.33" class="st10"/>
			<path d="M22.22 612 L8.72 612" class="st10"/>
			<path d="M22.22 612 L8.05 612" class="st10"/>
			<path d="M22.22 612 L8.05 612" class="st10"/>
			<path d="M22.22 612 L8.05 612" class="st10"/>
			<path d="M22.22 612 L8.05 612" class="st10"/>
		</g>
		<g id="shape1004-95" v:mID="1004" v:groupContext="shape" v:layerMember="0" transform="translate(142.756,-268.909)">
			<title>Dynamic connector.1004</title>
			<path d="M9 612 L9 678.34" class="st10"/>
		</g>
		<g id="shape1011-98" v:mID="1011" v:groupContext="shape" v:layerMember="0" transform="translate(510.555,-381.742)">
			<title>Dynamic connector.1011</title>
			<path d="M9 612 L9 678.34" class="st10"/>
		</g>
		<g id="shape1012-101" v:mID="1012" v:groupContext="shape" v:layerMember="0" transform="translate(510.555,-268.909)">
			<title>Dynamic connector.1012</title>
			<path d="M9 612 L9 669.1" class="st10"/>
		</g>
		<g id="shape1013-104" v:mID="1013" v:groupContext="shape" v:layerMember="0" transform="translate(418.216,-268.909)">
			<title>Dynamic connector.1013</title>
			<path d="M9 612 L9 669.1" class="st10"/>
		</g>
		<g id="shape1014-107" v:mID="1014" v:groupContext="shape" v:layerMember="0" transform="translate(325.878,-268.909)">
			<title>Dynamic connector.1014</title>
			<path d="M9 612 L9 669.1" class="st10"/>
		</g>
		<g id="shape1015-110" v:mID="1015" v:groupContext="shape" v:layerMember="0" transform="translate(233.539,-268.909)">
			<title>Dynamic connector.1015</title>
			<path d="M9 612 L9 669.1" class="st10"/>
		</g>
		<g id="shape1016-113" v:mID="1016" v:groupContext="shape" v:layerMember="0" transform="translate(141.201,-381.742)">
			<title>Dynamic connector.1016</title>
			<path d="M9 612 L9 678.34" class="st10"/>
		</g>
		<g id="shape1017-116" v:mID="1017" v:groupContext="shape" v:layerMember="0" transform="translate(142.756,-156.077)">
			<title>Dynamic connector.1017</title>
			<path d="M9 612 L9 670.59" class="st10"/>
		</g>
		<g id="shape1018-119" v:mID="1018" v:groupContext="shape" v:layerMember="0" transform="translate(48.8626,-381.742)">
			<title>Dynamic connector.1018</title>
			<path d="M9 612 L9 669.1" class="st10"/>
		</g>
		<g id="shape1022-122" v:mID="1022" v:groupContext="shape" v:layerMember="0" transform="translate(308.82,-174.881)">
			<title>Dynamic connector.1022</title>
			<path d="M0 603 L-36.3 603" class="st11"/>
		</g>
		<g id="shape1023-128" v:mID="1023" v:groupContext="shape" v:layerMember="0" transform="translate(493.497,-174.881)">
			<title>Dynamic connector.1023</title>
			<path d="M0 603 L-36.3 603" class="st11"/>
		</g>
		<g id="shape1024-133" v:mID="1024" v:groupContext="shape" v:layerMember="0" transform="translate(401.159,-174.881)">
			<title>Dynamic connector.1024</title>
			<path d="M0 603 L-36.3 603" class="st11"/>
		</g>
		<g id="shape1025-138" v:mID="1025" v:groupContext="shape" v:layerMember="0" transform="translate(758.25,-408.701)">
			<title>Dynamic connector.1025</title>
			<path d="M0 612 L10.69 612 L10.69 837.67 L-208.72 837.67" class="st11"/>
		</g>
		<g id="shape1026-143" v:mID="1026" v:groupContext="shape" transform="translate(854.539,230.258) rotate(90)">
			<title>Multi-tree square.1026</title>
			<v:userDefs>
				<v:ud v:nameU="Scale" v:val="VT0(1):26"/>
				<v:ud v:nameU="AntiScale" v:val="VT0(1):26"/>
				<v:ud v:nameU="visVersion" v:val="VT0(15):26"/>
			</v:userDefs>
			<path d="M0 612 L26.24 612" class="st10"/>
			<path d="M26.24 612 L66.34 612" class="st10"/>
			<path d="M26.24 612 L26.24 519.66 L66.34 519.66" class="st10"/>
			<path d="M26.24 612 L26.24 427.32 L66.34 427.32" class="st10"/>
			<path d="M26.24 612 L12.07 612" class="st10"/>
			<path d="M26.24 612 L12.07 612" class="st10"/>
			<path d="M26.24 612 L12.07 612" class="st10"/>
		</g>
	</g>
</svg>
