<?xml version="1.0" encoding="UTF-8" standalone="no"?>
<!DOCTYPE svg PUBLIC "-//W3C//DTD SVG 1.1//EN" "http://www.w3.org/Graphics/SVG/1.1/DTD/svg11.dtd">
<!-- Generated by Microsoft Visio, SVG Export git structure-init.svg Init -->
<svg xmlns="http://www.w3.org/2000/svg" xmlns:xlink="http://www.w3.org/1999/xlink" xmlns:ev="http://www.w3.org/2001/xml-events"
		xmlns:v="http://schemas.microsoft.com/visio/2003/SVGExtensions/" width="11in" height="8.5in" viewBox="0 0 792 612"
		xml:space="preserve" color-interpolation-filters="sRGB" class="st12">
	<v:documentProperties v:langID="1033" v:viewMarkup="false">
		<v:userDefs>
			<v:ud v:nameU="msvSubprocessMaster" v:prompt="" v:val="VT4(Box)"/>
			<v:ud v:nameU="msvNoAutoConnect" v:val="VT0(1):26"/>
		</v:userDefs>
	</v:documentProperties>

	<style type="text/css">
	<![CDATA[
		.st1 {fill:#42829e;stroke:none;stroke-linecap:butt;stroke-width:0.75}
		.st2 {fill:#42829e;font-family:Calibri;font-size:1.00001em}
		.st3 {fill:#42829e;stroke:none;stroke-linecap:round;stroke-linejoin:round;stroke-width:6.375}
		.st4 {fill:#ffffff;font-family:Calibri;font-size:1.5em}
		.st5 {fill:#ffffff;font-family:Calibri;font-size:1.00001em}
		.st6 {fill:#7f7f7f;fill-opacity:0;stroke:#7f7f7f;stroke-dasharray:3,1.5;stroke-linecap:butt;stroke-width:0.75}
		.st7 {fill:#7f7f7f;font-family:Calibri;font-size:1.00001em}
		.st8 {stroke:#5692c9;stroke-linecap:round;stroke-linejoin:round;stroke-width:0.5}
		.st9 {stroke:#7f7f7f;stroke-dasharray:3.5,2.5;stroke-linecap:round;stroke-linejoin:round;stroke-width:0.5}
		.st10 {marker-end:url(#mrkr4-66);stroke:#625986;stroke-dasharray:2.25,4.5;stroke-linecap:round;stroke-linejoin:round;stroke-width:2.25}
		.st11 {fill:#625986;fill-opacity:1;stroke:#625986;stroke-opacity:1;stroke-width:0.47169811320755}
		.st12 {fill:none;fill-rule:evenodd;font-size:12px;overflow:visible;stroke-linecap:square;stroke-miterlimit:3}
	]]>
	</style>

	<defs id="Markers">
		<g id="lend4">
			<path d="M 2 1 L 0 0 L 2 -1 L 2 1 " style="stroke:none"/>
		</g>
		<marker id="mrkr4-66" class="st11" v:arrowType="4" v:arrowSize="2" v:setback="4.24" refX="-4.24" orient="auto"
				markerUnits="strokeWidth" overflow="visible">
			<use xlink:href="#lend4" transform="scale(-2.12,-2.12) "/>
		</marker>
	</defs>
	<g v:mID="12" v:index="3" v:groupContext="foregroundPage">
		<v:userDefs>
			<v:ud v:nameU="msvThemeOrder" v:val="VT0(0):26"/>
		</v:userDefs>
		<title>Init</title>
		<v:pageProperties v:drawingScale="1" v:pageScale="1" v:drawingUnits="0" v:shadowOffsetX="9" v:shadowOffsetY="-9"/>
		<v:layer v:name="Connector" v:index="0"/>
		<g id="shape30-1" v:mID="30" v:groupContext="shape" transform="translate(711.755,-380.25)">
			<title>Document.30</title>
			<desc>HEAD</desc>
			<v:userDefs>
				<v:ud v:nameU="msvShapeCategories" v:prompt="" v:val="VT4(Icon)"/>
				<v:ud v:nameU="visVersion" v:prompt="" v:val="VT0(15):26"/>
			</v:userDefs>
			<v:textBlock v:margins="rect(2,2,2,2)" v:verticalAlign="0"/>
			<v:textRect cx="23.2474" cy="617.72" width="41.97" height="8.39255"/>
			<path d="M8.94 599.48 L8.94 597.69 L37.55 597.69 L37.55 599.48 L8.94 599.48 ZM8.94 592.33 L8.94 590.54 L37.55 590.54
						 L37.55 592.33 L8.94 592.33 ZM8.94 585.18 L8.94 583.39 L37.55 583.39 L37.55 585.18 L8.94 585.18 ZM8.94 578.02
						 L8.94 576.23 L37.55 576.23 L37.55 578.02 L8.94 578.02 ZM8.94 570.87 L8.94 569.08 L26.89 569.08 L26.89 570.87
						 L8.94 570.87 ZM42.92 608.42 L42.92 569.08 L32.19 569.08 L32.19 558.35 L3.58 558.35 L3.58 608.42 L42.92 608.42
						 ZM42.47 567.29 L33.98 558.8 L33.98 567.29 L42.47 567.29 ZM35.32 554.78 L46.49 565.95 L46.49 612 L0 612 L0
						 554.78 L35.32 554.78 Z" class="st1"/>
			<text x="9.42" y="626.32" class="st2" v:langID="1033"><v:paragraph v:horizAlign="1"/><v:tabList/>HEAD</text>		</g>
		<g id="group44-4" transform="translate(329.947,-490.222)" v:mID="44" v:groupContext="group">
			<title>Folder</title>
			<g id="shape45-5" v:mID="45" v:groupContext="shape">
				<title>Sheet.45</title>
				<desc>.git</desc>
				<v:textBlock v:margins="rect(4,4,4,4)"/>
				<v:textRect cx="65.6517" cy="561.128" width="131.31" height="101.745"/>
				<path d="M124.21 612 C128.11 612 131.3 608.73 131.3 604.73 L131.3 532.06 C131.3 528.06 128.11 524.79 124.21 524.79
							 L63.88 524.79 L44.36 511.53 C43.29 510.62 41.88 510.26 40.46 510.26 L7.1 510.26 C3.19 510.26 0 513.53
							 0 517.52 L0 604.73 C0 608.73 3.19 612 7.1 612 L124.21 612 Z" class="st3"/>
				<text x="54.06" y="566.53" class="st4" v:langID="1033"><v:paragraph v:horizAlign="1"/><v:tabList/>.git</text>			</g>
			<g id="shape44-8" v:mID="44" v:groupContext="groupContent">
				<v:textBlock v:margins="rect(4,4,4,4)"/>
			</g>
		</g>
		<g id="group48-9" transform="translate(20.0537,-381.742)" v:mID="48" v:groupContext="group">
			<title>Folder.48</title>
			<g id="shape49-10" v:mID="49" v:groupContext="shape">
				<title>Sheet.49</title>
				<desc>hooks</desc>
				<v:textBlock v:margins="rect(4,4,4,4)"/>
				<v:textRect cx="34.9988" cy="584.88" width="70" height="54.2401"/>
				<path d="M66.21 612 C68.29 612 70 610.26 70 608.13 L70 569.38 C70 567.25 68.29 565.51 66.21 565.51 L34.05 565.51
							 L23.65 558.44 C23.08 557.95 22.32 557.76 21.57 557.76 L3.78 557.76 C1.7 557.76 0 559.5 0 561.63 L0 608.13
							 C0 610.26 1.7 612 3.78 612 L66.21 612 Z" class="st3"/>
				<text x="20.44" y="588.48" class="st5" v:langID="1033"><v:paragraph v:horizAlign="1"/><v:tabList/>hooks</text>			</g>
		</g>
		<g id="group54-13" transform="translate(204.731,-381.742)" v:mID="54" v:groupContext="group">
			<title>Folder.54</title>
			<g id="shape55-14" v:mID="55" v:groupContext="shape">
				<title>Sheet.55</title>
				<desc>objects</desc>
				<v:textBlock v:margins="rect(4,4,4,4)"/>
				<v:textRect cx="34.9988" cy="584.88" width="70" height="54.2401"/>
				<path d="M66.21 612 C68.29 612 70 610.26 70 608.13 L70 569.38 C70 567.25 68.29 565.51 66.21 565.51 L34.05 565.51
							 L23.65 558.44 C23.08 557.95 22.32 557.76 21.57 557.76 L3.78 557.76 C1.7 557.76 0 559.5 0 561.63 L0 608.13
							 C0 610.26 1.7 612 3.78 612 L66.21 612 Z" class="st3"/>
				<text x="17.37" y="588.48" class="st5" v:langID="1033"><v:paragraph v:horizAlign="1"/><v:tabList/>objects</text>			</g>
		</g>
		<g id="group57-17" transform="translate(481.746,-381.742)" v:mID="57" v:groupContext="group">
			<title>Folder.57</title>
			<g id="shape58-18" v:mID="58" v:groupContext="shape">
				<title>Sheet.58</title>
				<desc>refs</desc>
				<v:textBlock v:margins="rect(4,4,4,4)"/>
				<v:textRect cx="34.9988" cy="584.88" width="70" height="54.2401"/>
				<path d="M66.21 612 C68.29 612 70 610.26 70 608.13 L70 569.38 C70 567.25 68.29 565.51 66.21 565.51 L34.05 565.51
							 L23.65 558.44 C23.08 557.95 22.32 557.76 21.57 557.76 L3.78 557.76 C1.7 557.76 0 559.5 0 561.63 L0 608.13
							 C0 610.26 1.7 612 3.78 612 L66.21 612 Z" class="st3"/>
				<text x="25.74" y="588.48" class="st5" v:langID="1033"><v:paragraph v:horizAlign="1"/><v:tabList/>refs</text>			</g>
		</g>
		<g id="shape60-21" v:mID="60" v:groupContext="shape" transform="translate(574.084,-380.25)">
			<title>Document.60</title>
			<desc>config</desc>
			<v:userDefs>
				<v:ud v:nameU="msvShapeCategories" v:prompt="" v:val="VT4(Icon)"/>
				<v:ud v:nameU="visVersion" v:prompt="" v:val="VT0(15):26"/>
			</v:userDefs>
			<v:textBlock v:margins="rect(2,2,2,2)" v:verticalAlign="0"/>
			<v:textRect cx="23.2474" cy="617.72" width="41.97" height="8.39255"/>
			<path d="M8.94 599.48 L8.94 597.69 L37.55 597.69 L37.55 599.48 L8.94 599.48 ZM8.94 592.33 L8.94 590.54 L37.55 590.54
						 L37.55 592.33 L8.94 592.33 ZM8.94 585.18 L8.94 583.39 L37.55 583.39 L37.55 585.18 L8.94 585.18 ZM8.94 578.02
						 L8.94 576.23 L37.55 576.23 L37.55 578.02 L8.94 578.02 ZM8.94 570.87 L8.94 569.08 L26.89 569.08 L26.89 570.87
						 L8.94 570.87 ZM42.92 608.42 L42.92 569.08 L32.19 569.08 L32.19 558.35 L3.58 558.35 L3.58 608.42 L42.92 608.42
						 ZM42.47 567.29 L33.98 558.8 L33.98 567.29 L42.47 567.29 ZM35.32 554.78 L46.49 565.95 L46.49 612 L0 612 L0
						 554.78 L35.32 554.78 Z" class="st1"/>
			<text x="8.36" y="626.32" class="st2" v:langID="1033"><v:paragraph v:horizAlign="1"/><v:tabList/>config</text>		</g>
		<g id="shape88-24" v:mID="88" v:groupContext="shape" transform="translate(31.8051,-267.417)">
			<title>Document.88</title>
			<desc>*.sample</desc>
			<v:userDefs>
				<v:ud v:nameU="msvShapeCategories" v:prompt="" v:val="VT4(Icon)"/>
				<v:ud v:nameU="visVersion" v:prompt="" v:val="VT0(15):26"/>
			</v:userDefs>
			<v:textBlock v:margins="rect(2,2,2,2)" v:verticalAlign="0"/>
			<v:textRect cx="23.2474" cy="617.72" width="70" height="8.39255"/>
			<path d="M8.94 599.48 L8.94 597.69 L37.55 597.69 L37.55 599.48 L8.94 599.48 ZM8.94 592.33 L8.94 590.54 L37.55 590.54
						 L37.55 592.33 L8.94 592.33 ZM8.94 585.18 L8.94 583.39 L37.55 583.39 L37.55 585.18 L8.94 585.18 ZM8.94 578.02
						 L8.94 576.23 L37.55 576.23 L37.55 578.02 L8.94 578.02 ZM8.94 570.87 L8.94 569.08 L26.89 569.08 L26.89 570.87
						 L8.94 570.87 ZM42.92 608.42 L42.92 569.08 L32.19 569.08 L32.19 558.35 L3.58 558.35 L3.58 608.42 L42.92 608.42
						 ZM42.47 567.29 L33.98 558.8 L33.98 567.29 L42.47 567.29 ZM35.32 554.78 L46.49 565.95 L46.49 612 L0 612 L0
						 554.78 L35.32 554.78 Z" class="st1"/>
			<text x="1.22" y="626.32" class="st2" v:langID="1033"><v:paragraph v:horizAlign="1"/><v:tabList/>*.sample</text>		</g>
		<g id="group114-27" transform="translate(481.746,-268.909)" v:mID="114" v:groupContext="group">
			<title>Folder.114</title>
			<g id="shape115-28" v:mID="115" v:groupContext="shape">
				<title>Sheet.115</title>
				<desc>heads</desc>
				<v:textBlock v:margins="rect(4,4,4,4)"/>
				<v:textRect cx="34.9988" cy="584.88" width="70" height="54.2401"/>
				<path d="M66.21 612 C68.29 612 70 610.26 70 608.13 L70 569.38 C70 567.25 68.29 565.51 66.21 565.51 L34.05 565.51
							 L23.65 558.44 C23.08 557.95 22.32 557.76 21.57 557.76 L3.78 557.76 C1.7 557.76 0 559.5 0 561.63 L0 608.13
							 C0 610.26 1.7 612 3.78 612 L66.21 612 Z" class="st3"/>
				<text x="20.49" y="588.48" class="st5" v:langID="1033"><v:paragraph v:horizAlign="1"/><v:tabList/>heads</text>			</g>
		</g>
		<g id="shape116-31" v:mID="116" v:groupContext="shape" transform="translate(493.497,-154.585)">
			<title>Document.116</title>
			<desc>master</desc>
			<v:userDefs>
				<v:ud v:nameU="msvShapeCategories" v:prompt="" v:val="VT4(Icon)"/>
				<v:ud v:nameU="visVersion" v:prompt="" v:val="VT0(15):26"/>
			</v:userDefs>
			<v:textBlock v:margins="rect(2,2,2,2)" v:verticalAlign="0"/>
			<v:textRect cx="23.2474" cy="617.72" width="70" height="8.39255"/>
			<path d="M8.94 599.48 L8.94 597.69 L37.55 597.69 L37.55 599.48 L8.94 599.48 ZM8.94 592.33 L8.94 590.54 L37.55 590.54
						 L37.55 592.33 L8.94 592.33 ZM8.94 585.18 L8.94 583.39 L37.55 583.39 L37.55 585.18 L8.94 585.18 ZM8.94 578.02
						 L8.94 576.23 L37.55 576.23 L37.55 578.02 L8.94 578.02 ZM8.94 570.87 L8.94 569.08 L26.89 569.08 L26.89 570.87
						 L8.94 570.87 ZM42.92 608.42 L42.92 569.08 L32.19 569.08 L32.19 558.35 L3.58 558.35 L3.58 608.42 L42.92 608.42
						 ZM42.47 567.29 L33.98 558.8 L33.98 567.29 L42.47 567.29 ZM35.32 554.78 L46.49 565.95 L46.49 612 L0 612 L0
						 554.78 L35.32 554.78 Z" class="st6"/>
			<text x="6.15" y="626.32" class="st7" v:langID="1033"><v:paragraph v:horizAlign="1"/><v:tabList/>master</text>		</g>
		<g id="shape1000-34" v:mID="1000" v:groupContext="shape" transform="translate(1012.87,121.778) rotate(90)">
			<title>Multi-tree square.1000</title>
			<v:userDefs>
				<v:ud v:nameU="Scale" v:val="VT0(1):26"/>
				<v:ud v:nameU="AntiScale" v:val="VT0(1):26"/>
				<v:ud v:nameU="visVersion" v:val="VT0(15):26"/>
			</v:userDefs>
			<path d="M0 612 L22.22 612" class="st8"/>
			<path d="M22.22 612 L22.22 955.01 L61.99 955.01" class="st8"/>
			<path d="M22.22 612 L22.22 277.87 L52.75 277.87" class="st8"/>
			<path d="M22.22 612 L22.22 415.54 L52.75 415.54" class="st8"/>
			<path d="M22.22 612 L22.22 415.54 L52.75 415.54" class="st8"/>
			<path d="M22.22 612 L22.22 493.31 L61.99 493.31" class="st8"/>
			<path d="M22.22 612 L22.22 955.01 L61.99 955.01" class="st8"/>
		</g>
		<g id="shape1001-43" v:mID="1001" v:groupContext="shape" transform="translate(1012.87,121.778) rotate(90)">
			<title>Multi-tree square.1001</title>
			<v:userDefs>
				<v:ud v:nameU="Scale" v:val="VT0(1):26"/>
				<v:ud v:nameU="AntiScale" v:val="VT0(1):26"/>
				<v:ud v:nameU="visVersion" v:val="VT0(15):26"/>
			</v:userDefs>
			<path d="M0 612 L22.22 612" class="st8"/>
			<path d="M22.22 612 L22.22 770.33 L61.99 770.33" class="st8"/>
			<path d="M22.22 612 L8.72 612" class="st8"/>
			<path d="M22.22 612 L8.05 612" class="st8"/>
			<path d="M22.22 612 L8.05 612" class="st8"/>
			<path d="M22.22 612 L8.05 612" class="st8"/>
			<path d="M22.22 612 L8.05 612" class="st8"/>
		</g>
		<g id="shape1011-52" v:mID="1011" v:groupContext="shape" v:layerMember="0" transform="translate(510.555,-381.742)">
			<title>Dynamic connector.1011</title>
			<path d="M9 612 L9 678.34" class="st8"/>
		</g>
		<g id="shape1012-55" v:mID="1012" v:groupContext="shape" v:layerMember="0" transform="translate(510.555,-268.909)">
			<title>Dynamic connector.1012</title>
			<path d="M9 612 L9 669.1" class="st9"/>
		</g>
		<g id="shape1018-58" v:mID="1018" v:groupContext="shape" v:layerMember="0" transform="translate(48.8626,-381.742)">
			<title>Dynamic connector.1018</title>
			<path d="M9 612 L9 669.1" class="st8"/>
		</g>
		<g id="shape1025-61" v:mID="1025" v:groupContext="shape" v:layerMember="0" transform="translate(758.25,-408.701)">
			<title>Dynamic connector.1025</title>
			<path d="M0 612 L10.69 612 L10.69 837.67 L-208.72 837.67" class="st10"/>
		</g>
	</g>
</svg>
