<svg xmlns='http://www.w3.org/2000/svg' xmlns:xlink='http://www.w3.org/1999/xlink' width="728.125" height="1093.5"><g transform="translate(10, 10)"><g><path d="M 0 1040 C 0 1000 0 1000 0 960 L 0 880 L 0 800 L 0 720 L 0 640 L 0 560 L 0 480 L 0 400 L 0 320 L 0 240 L 0 160 L 0 80 C 0 40 0 40 0 0" fill="transparent" stroke="green" stroke-width="10" transform="translate(14, 14)"></path><path d="M 0 1040 C 0 1000 50 1000 50 960 L 50 880 L 50 800 L 50 720 L 50 640 L 50 560 L 50 480 L 50 400 L 50 320 L 50 240 L 50 160 C 50 120 50 120 50 80" fill="transparent" stroke="mediumvioletred" stroke-width="10" transform="translate(14, 14)"></path><path d="M 50 960 C 50 920 150 920 150 880 L 150 800 L 150 720 L 150 640 L 150 560 L 150 480 C 150 440 50 440 50 400" fill="transparent" stroke="cornflowerblue" stroke-width="10" transform="translate(14, 14)"></path><path d="M 50 960 C 50 920 200 920 200 880 L 200 800 L 200 720 L 200 640 L 200 560 L 200 480 L 200 400 C 200 360 50 360 50 320" fill="transparent" stroke="purple" stroke-width="10" transform="translate(14, 14)"></path><path d="M 50 320 C 50 280 100 280 100 240 L 100 160 C 100 120 50 120 50 80 M 100 160 C 100 120 0 120 0 80 C 0 40 0 40 0 0" fill="transparent" stroke="goldenrod" stroke-width="10" transform="translate(14, 14)"></path></g><g><g transform="translate(0, 1040)"><g><defs><circle cx="14" cy="14" r="14" id="b8f06bc31f83547700bc9c9cd1ffa87af86a804d" fill="green"></circle><clipPath id="clip-b8f06bc31f83547700bc9c9cd1ffa87af86a804d"><use href="#b8f06bc31f83547700bc9c9cd1ffa87af86a804d" xlink:href="#b8f06bc31f83547700bc9c9cd1ffa87af86a804d"></use></clipPath></defs><use href="#b8f06bc31f83547700bc9c9cd1ffa87af86a804d" xlink:href="#b8f06bc31f83547700bc9c9cd1ffa87af86a804d" clip-path="url(#clip-b8f06bc31f83547700bc9c9cd1ffa87af86a804d)" stroke="" stroke-width="0"></use></g><g transform="translate(0, 0)"><g transform="translate(250, 14)"><text alignment-baseline="central" dominant-baseline="central" fill="green" style="font: normal 14pt Arial">b8f06bc Initial commit</text></g></g></g><g transform="translate(50, 960)"><g><defs><circle cx="14" cy="14" r="14" id="c508492979e72a9f16dfbd8a317dd1bddff2d6b2" fill="mediumvioletred"></circle><clipPath id="clip-c508492979e72a9f16dfbd8a317dd1bddff2d6b2"><use href="#c508492979e72a9f16dfbd8a317dd1bddff2d6b2" xlink:href="#c508492979e72a9f16dfbd8a317dd1bddff2d6b2"></use></clipPath></defs><use href="#c508492979e72a9f16dfbd8a317dd1bddff2d6b2" xlink:href="#c508492979e72a9f16dfbd8a317dd1bddff2d6b2" clip-path="url(#clip-c508492979e72a9f16dfbd8a317dd1bddff2d6b2)" stroke="" stroke-width="0"></use></g><g transform="translate(-50, 0)"><g transform="translate(250, 14)"><text alignment-baseline="central" dominant-baseline="central" fill="mediumvioletred" style="font: normal 14pt Arial">c508492 Init dev</text></g></g></g><g transform="translate(150, 880)"><g><defs><circle cx="14" cy="14" r="14" id="d67f64636719cb56759737b640ff70bba3da773e" fill="cornflowerblue"></circle><clipPath id="clip-d67f64636719cb56759737b640ff70bba3da773e"><use href="#d67f64636719cb56759737b640ff70bba3da773e" xlink:href="#d67f64636719cb56759737b640ff70bba3da773e"></use></clipPath></defs><use href="#d67f64636719cb56759737b640ff70bba3da773e" xlink:href="#d67f64636719cb56759737b640ff70bba3da773e" clip-path="url(#clip-d67f64636719cb56759737b640ff70bba3da773e)" stroke="" stroke-width="0"></use></g><g transform="translate(-150, 0)"><g transform="translate(250, 14)"><text alignment-baseline="central" dominant-baseline="central" fill="cornflowerblue" style="font: normal 14pt Arial">d67f646 Add some changes</text></g></g></g><g transform="translate(150, 800)"><g><defs><circle cx="14" cy="14" r="14" id="e9ad63bcdbb4e3da76fa94129fcccf2b78b8435a" fill="cornflowerblue"></circle><clipPath id="clip-e9ad63bcdbb4e3da76fa94129fcccf2b78b8435a"><use href="#e9ad63bcdbb4e3da76fa94129fcccf2b78b8435a" xlink:href="#e9ad63bcdbb4e3da76fa94129fcccf2b78b8435a"></use></clipPath></defs><use href="#e9ad63bcdbb4e3da76fa94129fcccf2b78b8435a" xlink:href="#e9ad63bcdbb4e3da76fa94129fcccf2b78b8435a" clip-path="url(#clip-e9ad63bcdbb4e3da76fa94129fcccf2b78b8435a)" stroke="" stroke-width="0"></use></g><g transform="translate(-150, 0)"><g transform="translate(250, 14)"><text alignment-baseline="central" dominant-baseline="central" fill="cornflowerblue" style="font: normal 14pt Arial">e9ad63b Make more changes</text></g></g></g><g transform="translate(150, 720)"><g><defs><circle cx="14" cy="14" r="14" id="dc018e012935f3df06d907e2a46f95176f1275f2" fill="cornflowerblue"></circle><clipPath id="clip-dc018e012935f3df06d907e2a46f95176f1275f2"><use href="#dc018e012935f3df06d907e2a46f95176f1275f2" xlink:href="#dc018e012935f3df06d907e2a46f95176f1275f2"></use></clipPath></defs><use href="#dc018e012935f3df06d907e2a46f95176f1275f2" xlink:href="#dc018e012935f3df06d907e2a46f95176f1275f2" clip-path="url(#clip-dc018e012935f3df06d907e2a46f95176f1275f2)" stroke="" stroke-width="0"></use></g><g transform="translate(-150, 0)"><g transform="translate(320.46875, 14)"><text alignment-baseline="central" dominant-baseline="central" fill="cornflowerblue" style="font: normal 14pt Arial">dc018e0 Almost done</text></g><g transform="translate(250, 0)"><g><rect width="60.46875" height="31" rx="10" fill="white" stroke="cornflowerblue"></rect><text alignment-baseline="central" dominant-baseline="central" fill="cornflowerblue" style="font: normal 14pt Arial" x="10" y="15.5">chg1</text></g></g></g></g><g transform="translate(200, 640)"><g><defs><circle cx="14" cy="14" r="14" id="775aa74d852b50ba5ca42069998a237cd6933594" fill="purple"></circle><clipPath id="clip-775aa74d852b50ba5ca42069998a237cd6933594"><use href="#775aa74d852b50ba5ca42069998a237cd6933594" xlink:href="#775aa74d852b50ba5ca42069998a237cd6933594"></use></clipPath></defs><use href="#775aa74d852b50ba5ca42069998a237cd6933594" xlink:href="#775aa74d852b50ba5ca42069998a237cd6933594" clip-path="url(#clip-775aa74d852b50ba5ca42069998a237cd6933594)" stroke="" stroke-width="0"></use></g><g transform="translate(-200, 0)"><g transform="translate(250, 14)"><text alignment-baseline="central" dominant-baseline="central" fill="purple" style="font: normal 14pt Arial">775aa74 Add some changes</text></g></g></g><g transform="translate(200, 560)"><g><defs><circle cx="14" cy="14" r="14" id="ca1bcccc0dc6d7f61250f6f5c6844fb6df39e430" fill="purple"></circle><clipPath id="clip-ca1bcccc0dc6d7f61250f6f5c6844fb6df39e430"><use href="#ca1bcccc0dc6d7f61250f6f5c6844fb6df39e430" xlink:href="#ca1bcccc0dc6d7f61250f6f5c6844fb6df39e430"></use></clipPath></defs><use href="#ca1bcccc0dc6d7f61250f6f5c6844fb6df39e430" xlink:href="#ca1bcccc0dc6d7f61250f6f5c6844fb6df39e430" clip-path="url(#clip-ca1bcccc0dc6d7f61250f6f5c6844fb6df39e430)" stroke="" stroke-width="0"></use></g><g transform="translate(-200, 0)"><g transform="translate(250, 14)"><text alignment-baseline="central" dominant-baseline="central" fill="purple" style="font: normal 14pt Arial">ca1bccc Make more changes</text></g></g></g><g transform="translate(200, 480)"><g><defs><circle cx="14" cy="14" r="14" id="d63133e90f7a515278c6a5050adb391b73640596" fill="purple"></circle><clipPath id="clip-d63133e90f7a515278c6a5050adb391b73640596"><use href="#d63133e90f7a515278c6a5050adb391b73640596" xlink:href="#d63133e90f7a515278c6a5050adb391b73640596"></use></clipPath></defs><use href="#d63133e90f7a515278c6a5050adb391b73640596" xlink:href="#d63133e90f7a515278c6a5050adb391b73640596" clip-path="url(#clip-d63133e90f7a515278c6a5050adb391b73640596)" stroke="" stroke-width="0"></use></g><g transform="translate(-200, 0)"><g transform="translate(320.46875, 14)"><text alignment-baseline="central" dominant-baseline="central" fill="purple" style="font: normal 14pt Arial">d63133e Almost done</text></g><g transform="translate(250, 0)"><g><rect width="60.46875" height="31" rx="10" fill="white" stroke="purple"></rect><text alignment-baseline="central" dominant-baseline="central" fill="purple" style="font: normal 14pt Arial" x="10" y="15.5">chg2</text></g></g></g></g><g transform="translate(50, 400)"><g><defs><circle cx="14" cy="14" r="14" id="c4fd4b9769743cfb7ffb2a32747a4d18f10808c3" fill="mediumvioletred"></circle><clipPath id="clip-c4fd4b9769743cfb7ffb2a32747a4d18f10808c3"><use href="#c4fd4b9769743cfb7ffb2a32747a4d18f10808c3" xlink:href="#c4fd4b9769743cfb7ffb2a32747a4d18f10808c3"></use></clipPath></defs><use href="#c4fd4b9769743cfb7ffb2a32747a4d18f10808c3" xlink:href="#c4fd4b9769743cfb7ffb2a32747a4d18f10808c3" clip-path="url(#clip-c4fd4b9769743cfb7ffb2a32747a4d18f10808c3)" stroke="" stroke-width="0"></use></g><g transform="translate(-50, 0)"><g transform="translate(328.3125, 14)"><text alignment-baseline="central" dominant-baseline="central" fill="mediumvioletred" style="font: normal 14pt Arial">c4fd4b9 Merge branch chg1</text></g><g transform="translate(250, 14)" data-offset="12"><g><path d="M 0,0 L 12,15.5 V 15.5 Q 12,15.5 22,15.5 H 58.3125 Q 68.3125,15.5 68.3125,5.5 V -5.5 Q 68.3125,-15.5 58.3125,-15.5 H 22 Q 12,-15.5 12,-15.5 V -15.5 z" fill="mediumvioletred" stroke="mediumvioletred"></path><text alignment-baseline="central" dominant-baseline="central" fill="white" style="font: normal 14pt Arial" x="22" y="0">PR1</text></g></g></g></g><g transform="translate(50, 320)"><g><defs><circle cx="14" cy="14" r="14" id="b2e8b19ca8ba1f629b4a94d3f24bbcbf8b846eed" fill="mediumvioletred"></circle><clipPath id="clip-b2e8b19ca8ba1f629b4a94d3f24bbcbf8b846eed"><use href="#b2e8b19ca8ba1f629b4a94d3f24bbcbf8b846eed" xlink:href="#b2e8b19ca8ba1f629b4a94d3f24bbcbf8b846eed"></use></clipPath></defs><use href="#b2e8b19ca8ba1f629b4a94d3f24bbcbf8b846eed" xlink:href="#b2e8b19ca8ba1f629b4a94d3f24bbcbf8b846eed" clip-path="url(#clip-b2e8b19ca8ba1f629b4a94d3f24bbcbf8b846eed)" stroke="" stroke-width="0"></use></g><g transform="translate(-50, 0)"><g transform="translate(328.3125, 14)"><text alignment-baseline="central" dominant-baseline="central" fill="mediumvioletred" style="font: normal 14pt Arial">b2e8b19 Merge branch chg2</text></g><g transform="translate(250, 14)" data-offset="12"><g><path d="M 0,0 L 12,15.5 V 15.5 Q 12,15.5 22,15.5 H 58.3125 Q 68.3125,15.5 68.3125,5.5 V -5.5 Q 68.3125,-15.5 58.3125,-15.5 H 22 Q 12,-15.5 12,-15.5 V -15.5 z" fill="mediumvioletred" stroke="mediumvioletred"></path><text alignment-baseline="central" dominant-baseline="central" fill="white" style="font: normal 14pt Arial" x="22" y="0">PR2</text></g></g></g></g><g transform="translate(100, 240)"><g><defs><circle cx="14" cy="14" r="14" id="26313b7529e5ccd8bd0803378fa092ca9dc1a129" fill="goldenrod"></circle><clipPath id="clip-26313b7529e5ccd8bd0803378fa092ca9dc1a129"><use href="#26313b7529e5ccd8bd0803378fa092ca9dc1a129" xlink:href="#26313b7529e5ccd8bd0803378fa092ca9dc1a129"></use></clipPath></defs><use href="#26313b7529e5ccd8bd0803378fa092ca9dc1a129" xlink:href="#26313b7529e5ccd8bd0803378fa092ca9dc1a129" clip-path="url(#clip-26313b7529e5ccd8bd0803378fa092ca9dc1a129)" stroke="" stroke-width="0"></use></g><g transform="translate(-100, 0)"><g transform="translate(250, 14)"><text alignment-baseline="central" dominant-baseline="central" fill="goldenrod" style="font: normal 14pt Arial">26313b7 Init for release</text></g></g></g><g transform="translate(100, 160)"><g><defs><circle cx="14" cy="14" r="14" id="08d1e24cbde93b966f24da96b429d70ed08799df" fill="goldenrod"></circle><clipPath id="clip-08d1e24cbde93b966f24da96b429d70ed08799df"><use href="#08d1e24cbde93b966f24da96b429d70ed08799df" xlink:href="#08d1e24cbde93b966f24da96b429d70ed08799df"></use></clipPath></defs><use href="#08d1e24cbde93b966f24da96b429d70ed08799df" xlink:href="#08d1e24cbde93b966f24da96b429d70ed08799df" clip-path="url(#clip-08d1e24cbde93b966f24da96b429d70ed08799df)" stroke="" stroke-width="0"></use></g><g transform="translate(-100, 0)"><g transform="translate(296.59375, 14)"><text alignment-baseline="central" dominant-baseline="central" fill="goldenrod" style="font: normal 14pt Arial">08d1e24 Bugfix</text></g><g transform="translate(250, 0)"><g><rect width="36.59375" height="31" rx="10" fill="white" stroke="goldenrod"></rect><text alignment-baseline="central" dominant-baseline="central" fill="goldenrod" style="font: normal 14pt Arial" x="10" y="15.5">r1</text></g></g></g></g><g transform="translate(50, 80)"><g><defs><circle cx="14" cy="14" r="14" id="0a2e5a4fb5a20a6293332c916617e4ccbd5ad64e" fill="mediumvioletred"></circle><clipPath id="clip-0a2e5a4fb5a20a6293332c916617e4ccbd5ad64e"><use href="#0a2e5a4fb5a20a6293332c916617e4ccbd5ad64e" xlink:href="#0a2e5a4fb5a20a6293332c916617e4ccbd5ad64e"></use></clipPath></defs><use href="#0a2e5a4fb5a20a6293332c916617e4ccbd5ad64e" xlink:href="#0a2e5a4fb5a20a6293332c916617e4ccbd5ad64e" clip-path="url(#clip-0a2e5a4fb5a20a6293332c916617e4ccbd5ad64e)" stroke="" stroke-width="0"></use></g><g transform="translate(-50, 0)"><g transform="translate(310.765625, 14)"><text alignment-baseline="central" dominant-baseline="central" fill="mediumvioletred" style="font: normal 14pt Arial">0a2e5a4 Merge branch r1</text></g><g transform="translate(250, 0)"><g><rect width="50.765625" height="31" rx="10" fill="white" stroke="mediumvioletred"></rect><text alignment-baseline="central" dominant-baseline="central" fill="mediumvioletred" style="font: normal 14pt Arial" x="10" y="15.5">dev</text></g></g></g></g><g transform="translate(0, 0)"><g><defs><circle cx="14" cy="14" r="14" id="ba122c149b592cd75a8118fe868dda2098cef919" fill="green"></circle><clipPath id="clip-ba122c149b592cd75a8118fe868dda2098cef919"><use href="#ba122c149b592cd75a8118fe868dda2098cef919" xlink:href="#ba122c149b592cd75a8118fe868dda2098cef919"></use></clipPath></defs><use href="#ba122c149b592cd75a8118fe868dda2098cef919" xlink:href="#ba122c149b592cd75a8118fe868dda2098cef919" clip-path="url(#clip-ba122c149b592cd75a8118fe868dda2098cef919)" stroke="" stroke-width="0"></use></g><g transform="translate(0, 0)"><g transform="translate(494.421875, 14)"><text alignment-baseline="central" dominant-baseline="central" fill="green" style="font: normal 14pt Arial">ba122c1 Merge branch r1</text></g><g transform="translate(250, 0)"><g><rect width="77.828125" height="31" rx="10" fill="white" stroke="green"></rect><text alignment-baseline="central" dominant-baseline="central" fill="green" style="font: normal 14pt Arial" x="10" y="15.5">master</text></g></g><g transform="translate(337.828125, 14)" data-offset="12"><g><path d="M 0,0 L 12,15.5 V 15.5 Q 12,15.5 22,15.5 H 58.3125 Q 68.3125,15.5 68.3125,5.5 V -5.5 Q 68.3125,-15.5 58.3125,-15.5 H 22 Q 12,-15.5 12,-15.5 V -15.5 z" fill="green" stroke="green"></path><text alignment-baseline="central" dominant-baseline="central" fill="white" style="font: normal 14pt Arial" x="22" y="0">PR3</text></g></g><g transform="translate(416.140625, 14)" data-offset="12"><g><path d="M 0,0 L 12,15.5 V 15.5 Q 12,15.5 22,15.5 H 58.28125 Q 68.28125,15.5 68.28125,5.5 V -5.5 Q 68.28125,-15.5 58.28125,-15.5 H 22 Q 12,-15.5 12,-15.5 V -15.5 z" fill="green" stroke="green"></path><text alignment-baseline="central" dominant-baseline="central" fill="white" style="font: normal 14pt Arial" x="22" y="0">v1.0</text></g></g></g></g></g></g></svg>