<svg xmlns='http://www.w3.org/2000/svg' xmlns:xlink='http://www.w3.org/1999/xlink' width="649.859375" height="1013.5"><g transform="translate(10, 10)"><g><path d="M 0 960 C 0 920 0 920 0 880 L 0 800 L 0 720 L 0 640 L 0 560 L 0 480 L 0 400 L 0 320 L 0 240 L 0 160 C 0 120 0 120 0 80" fill="transparent" stroke="green" stroke-width="10" transform="translate(14, 14)"></path><path d="M 0 960 C 0 920 50 920 50 880 L 50 800 L 50 720 L 50 640 L 50 560 L 50 480 C 50 440 0 440 0 400" fill="transparent" stroke="cornflowerblue" stroke-width="10" transform="translate(14, 14)"></path><path d="M 0 960 C 0 920 100 920 100 880 L 100 800 L 100 720 L 100 640 L 100 560 L 100 480 L 100 400 C 100 360 0 360 0 320" fill="transparent" stroke="purple" stroke-width="10" transform="translate(14, 14)"></path><path d="M 0 320 C 0 280 200 280 200 240 L 200 160 L 200 80 C 200 40 200 40 200 0" fill="transparent" stroke="goldenrod" stroke-width="10" transform="translate(14, 14)"></path><path d="M 0 320 C 0 280 150 280 150 240 L 150 160 C 150 120 0 120 0 80 M 150 160 C 150 120 200 120 200 80 C 200 40 200 40 200 0" fill="transparent" stroke="#ff0000" stroke-width="10" transform="translate(14, 14)"></path></g><g><g transform="translate(0, 960)"><g><defs><circle cx="14" cy="14" r="14" id="0a7677c9efec144a7b312106327090589d252ab4" fill="green"></circle><clipPath id="clip-0a7677c9efec144a7b312106327090589d252ab4"><use href="#0a7677c9efec144a7b312106327090589d252ab4" xlink:href="#0a7677c9efec144a7b312106327090589d252ab4"></use></clipPath></defs><use href="#0a7677c9efec144a7b312106327090589d252ab4" xlink:href="#0a7677c9efec144a7b312106327090589d252ab4" clip-path="url(#clip-0a7677c9efec144a7b312106327090589d252ab4)" stroke="" stroke-width="0"></use></g><g transform="translate(0, 0)"><g transform="translate(250, 14)"><text alignment-baseline="central" dominant-baseline="central" fill="green" style="font: normal 14pt Arial">0a7677c Initial commit</text></g></g></g><g transform="translate(50, 880)"><g><defs><circle cx="14" cy="14" r="14" id="f693c9dca9e2cdab0e23101e7041a296fff69584" fill="cornflowerblue"></circle><clipPath id="clip-f693c9dca9e2cdab0e23101e7041a296fff69584"><use href="#f693c9dca9e2cdab0e23101e7041a296fff69584" xlink:href="#f693c9dca9e2cdab0e23101e7041a296fff69584"></use></clipPath></defs><use href="#f693c9dca9e2cdab0e23101e7041a296fff69584" xlink:href="#f693c9dca9e2cdab0e23101e7041a296fff69584" clip-path="url(#clip-f693c9dca9e2cdab0e23101e7041a296fff69584)" stroke="" stroke-width="0"></use></g><g transform="translate(-50, 0)"><g transform="translate(250, 14)"><text alignment-baseline="central" dominant-baseline="central" fill="cornflowerblue" style="font: normal 14pt Arial">f693c9d Add some changes</text></g></g></g><g transform="translate(50, 800)"><g><defs><circle cx="14" cy="14" r="14" id="de324677e2e924c2bb3fa5b62af465da71e44d35" fill="cornflowerblue"></circle><clipPath id="clip-de324677e2e924c2bb3fa5b62af465da71e44d35"><use href="#de324677e2e924c2bb3fa5b62af465da71e44d35" xlink:href="#de324677e2e924c2bb3fa5b62af465da71e44d35"></use></clipPath></defs><use href="#de324677e2e924c2bb3fa5b62af465da71e44d35" xlink:href="#de324677e2e924c2bb3fa5b62af465da71e44d35" clip-path="url(#clip-de324677e2e924c2bb3fa5b62af465da71e44d35)" stroke="" stroke-width="0"></use></g><g transform="translate(-50, 0)"><g transform="translate(250, 14)"><text alignment-baseline="central" dominant-baseline="central" fill="cornflowerblue" style="font: normal 14pt Arial">de32467 Make more changes</text></g></g></g><g transform="translate(50, 720)"><g><defs><circle cx="14" cy="14" r="14" id="fdcf93b762328a6d6866ecf6c56b356594efb44a" fill="cornflowerblue"></circle><clipPath id="clip-fdcf93b762328a6d6866ecf6c56b356594efb44a"><use href="#fdcf93b762328a6d6866ecf6c56b356594efb44a" xlink:href="#fdcf93b762328a6d6866ecf6c56b356594efb44a"></use></clipPath></defs><use href="#fdcf93b762328a6d6866ecf6c56b356594efb44a" xlink:href="#fdcf93b762328a6d6866ecf6c56b356594efb44a" clip-path="url(#clip-fdcf93b762328a6d6866ecf6c56b356594efb44a)" stroke="" stroke-width="0"></use></g><g transform="translate(-50, 0)"><g transform="translate(320.46875, 14)"><text alignment-baseline="central" dominant-baseline="central" fill="cornflowerblue" style="font: normal 14pt Arial">fdcf93b Almost done</text></g><g transform="translate(250, 0)"><g><rect width="60.46875" height="31" rx="10" fill="white" stroke="cornflowerblue"></rect><text alignment-baseline="central" dominant-baseline="central" fill="cornflowerblue" style="font: normal 14pt Arial" x="10" y="15.5">chg1</text></g></g></g></g><g transform="translate(100, 640)"><g><defs><circle cx="14" cy="14" r="14" id="cda7d579016e3c78ae8b2d52dcbdcc5ac39eeac5" fill="purple"></circle><clipPath id="clip-cda7d579016e3c78ae8b2d52dcbdcc5ac39eeac5"><use href="#cda7d579016e3c78ae8b2d52dcbdcc5ac39eeac5" xlink:href="#cda7d579016e3c78ae8b2d52dcbdcc5ac39eeac5"></use></clipPath></defs><use href="#cda7d579016e3c78ae8b2d52dcbdcc5ac39eeac5" xlink:href="#cda7d579016e3c78ae8b2d52dcbdcc5ac39eeac5" clip-path="url(#clip-cda7d579016e3c78ae8b2d52dcbdcc5ac39eeac5)" stroke="" stroke-width="0"></use></g><g transform="translate(-100, 0)"><g transform="translate(250, 14)"><text alignment-baseline="central" dominant-baseline="central" fill="purple" style="font: normal 14pt Arial">cda7d57 Add some changes</text></g></g></g><g transform="translate(100, 560)"><g><defs><circle cx="14" cy="14" r="14" id="4ad814f9475c3aa605357c5d36bf948d877e80d9" fill="purple"></circle><clipPath id="clip-4ad814f9475c3aa605357c5d36bf948d877e80d9"><use href="#4ad814f9475c3aa605357c5d36bf948d877e80d9" xlink:href="#4ad814f9475c3aa605357c5d36bf948d877e80d9"></use></clipPath></defs><use href="#4ad814f9475c3aa605357c5d36bf948d877e80d9" xlink:href="#4ad814f9475c3aa605357c5d36bf948d877e80d9" clip-path="url(#clip-4ad814f9475c3aa605357c5d36bf948d877e80d9)" stroke="" stroke-width="0"></use></g><g transform="translate(-100, 0)"><g transform="translate(250, 14)"><text alignment-baseline="central" dominant-baseline="central" fill="purple" style="font: normal 14pt Arial">4ad814f Make more changes</text></g></g></g><g transform="translate(100, 480)"><g><defs><circle cx="14" cy="14" r="14" id="c91ed8fef5d97775907d672e9d78964625067cd2" fill="purple"></circle><clipPath id="clip-c91ed8fef5d97775907d672e9d78964625067cd2"><use href="#c91ed8fef5d97775907d672e9d78964625067cd2" xlink:href="#c91ed8fef5d97775907d672e9d78964625067cd2"></use></clipPath></defs><use href="#c91ed8fef5d97775907d672e9d78964625067cd2" xlink:href="#c91ed8fef5d97775907d672e9d78964625067cd2" clip-path="url(#clip-c91ed8fef5d97775907d672e9d78964625067cd2)" stroke="" stroke-width="0"></use></g><g transform="translate(-100, 0)"><g transform="translate(320.46875, 14)"><text alignment-baseline="central" dominant-baseline="central" fill="purple" style="font: normal 14pt Arial">c91ed8f Almost done</text></g><g transform="translate(250, 0)"><g><rect width="60.46875" height="31" rx="10" fill="white" stroke="purple"></rect><text alignment-baseline="central" dominant-baseline="central" fill="purple" style="font: normal 14pt Arial" x="10" y="15.5">chg2</text></g></g></g></g><g transform="translate(0, 400)"><g><defs><circle cx="14" cy="14" r="14" id="ae78189faebf8caa0ebc04bf2bbdbc12db770d0f" fill="green"></circle><clipPath id="clip-ae78189faebf8caa0ebc04bf2bbdbc12db770d0f"><use href="#ae78189faebf8caa0ebc04bf2bbdbc12db770d0f" xlink:href="#ae78189faebf8caa0ebc04bf2bbdbc12db770d0f"></use></clipPath></defs><use href="#ae78189faebf8caa0ebc04bf2bbdbc12db770d0f" xlink:href="#ae78189faebf8caa0ebc04bf2bbdbc12db770d0f" clip-path="url(#clip-ae78189faebf8caa0ebc04bf2bbdbc12db770d0f)" stroke="" stroke-width="0"></use></g><g transform="translate(0, 0)"><g transform="translate(328.3125, 14)"><text alignment-baseline="central" dominant-baseline="central" fill="green" style="font: normal 14pt Arial">ae78189 Merge branch chg1</text></g><g transform="translate(250, 14)" data-offset="12"><g><path d="M 0,0 L 12,15.5 V 15.5 Q 12,15.5 22,15.5 H 58.3125 Q 68.3125,15.5 68.3125,5.5 V -5.5 Q 68.3125,-15.5 58.3125,-15.5 H 22 Q 12,-15.5 12,-15.5 V -15.5 z" fill="green" stroke="green"></path><text alignment-baseline="central" dominant-baseline="central" fill="white" style="font: normal 14pt Arial" x="22" y="0">PR1</text></g></g></g></g><g transform="translate(0, 320)"><g><defs><circle cx="14" cy="14" r="14" id="5ec4caf0e37f93b31180fe56338ec1fdfffbdf49" fill="green"></circle><clipPath id="clip-5ec4caf0e37f93b31180fe56338ec1fdfffbdf49"><use href="#5ec4caf0e37f93b31180fe56338ec1fdfffbdf49" xlink:href="#5ec4caf0e37f93b31180fe56338ec1fdfffbdf49"></use></clipPath></defs><use href="#5ec4caf0e37f93b31180fe56338ec1fdfffbdf49" xlink:href="#5ec4caf0e37f93b31180fe56338ec1fdfffbdf49" clip-path="url(#clip-5ec4caf0e37f93b31180fe56338ec1fdfffbdf49)" stroke="" stroke-width="0"></use></g><g transform="translate(0, 0)"><g transform="translate(328.3125, 14)"><text alignment-baseline="central" dominant-baseline="central" fill="green" style="font: normal 14pt Arial">5ec4caf Merge branch chg2</text></g><g transform="translate(250, 14)" data-offset="12"><g><path d="M 0,0 L 12,15.5 V 15.5 Q 12,15.5 22,15.5 H 58.3125 Q 68.3125,15.5 68.3125,5.5 V -5.5 Q 68.3125,-15.5 58.3125,-15.5 H 22 Q 12,-15.5 12,-15.5 V -15.5 z" fill="green" stroke="green"></path><text alignment-baseline="central" dominant-baseline="central" fill="white" style="font: normal 14pt Arial" x="22" y="0">PR2</text></g></g></g></g><g transform="translate(200, 240)"><g><defs><circle cx="14" cy="14" r="14" id="cfae2646d7aad5cdf38a5b35540a6a9cd367f611" fill="goldenrod"></circle><clipPath id="clip-cfae2646d7aad5cdf38a5b35540a6a9cd367f611"><use href="#cfae2646d7aad5cdf38a5b35540a6a9cd367f611" xlink:href="#cfae2646d7aad5cdf38a5b35540a6a9cd367f611"></use></clipPath></defs><use href="#cfae2646d7aad5cdf38a5b35540a6a9cd367f611" xlink:href="#cfae2646d7aad5cdf38a5b35540a6a9cd367f611" clip-path="url(#clip-cfae2646d7aad5cdf38a5b35540a6a9cd367f611)" stroke="" stroke-width="0"></use></g><g transform="translate(-200, 0)"><g transform="translate(250, 14)"><text alignment-baseline="central" dominant-baseline="central" fill="goldenrod" style="font: normal 14pt Arial">cfae264 Init for release</text></g></g></g><g transform="translate(150, 160)"><g><defs><circle cx="14" cy="14" r="14" id="acf2b01ddf3ad6ad3518917b6462483c79e3902a" fill="#ff0000"></circle><clipPath id="clip-acf2b01ddf3ad6ad3518917b6462483c79e3902a"><use href="#acf2b01ddf3ad6ad3518917b6462483c79e3902a" xlink:href="#acf2b01ddf3ad6ad3518917b6462483c79e3902a"></use></clipPath></defs><use href="#acf2b01ddf3ad6ad3518917b6462483c79e3902a" xlink:href="#acf2b01ddf3ad6ad3518917b6462483c79e3902a" clip-path="url(#clip-acf2b01ddf3ad6ad3518917b6462483c79e3902a)" stroke="" stroke-width="0"></use></g><g transform="translate(-150, 0)"><g transform="translate(300.765625, 14)"><text alignment-baseline="central" dominant-baseline="central" fill="#ff0000" style="font: normal 14pt Arial">acf2b01 Hotfix</text></g><g transform="translate(250, 0)"><g><rect width="40.765625" height="31" rx="10" fill="white" stroke="#ff0000"></rect><text alignment-baseline="central" dominant-baseline="central" fill="#ff0000" style="font: normal 14pt Arial" x="10" y="15.5">h1</text></g></g></g></g><g transform="translate(0, 80)"><g><defs><circle cx="14" cy="14" r="14" id="8a3b80fceaccc02b19b47282102546b46df33633" fill="green"></circle><clipPath id="clip-8a3b80fceaccc02b19b47282102546b46df33633"><use href="#8a3b80fceaccc02b19b47282102546b46df33633" xlink:href="#8a3b80fceaccc02b19b47282102546b46df33633"></use></clipPath></defs><use href="#8a3b80fceaccc02b19b47282102546b46df33633" xlink:href="#8a3b80fceaccc02b19b47282102546b46df33633" clip-path="url(#clip-8a3b80fceaccc02b19b47282102546b46df33633)" stroke="" stroke-width="0"></use></g><g transform="translate(0, 0)"><g transform="translate(416.140625, 14)"><text alignment-baseline="central" dominant-baseline="central" fill="green" style="font: normal 14pt Arial">8a3b80f Merge branch h1</text></g><g transform="translate(250, 0)"><g><rect width="77.828125" height="31" rx="10" fill="white" stroke="green"></rect><text alignment-baseline="central" dominant-baseline="central" fill="green" style="font: normal 14pt Arial" x="10" y="15.5">master</text></g></g><g transform="translate(337.828125, 14)" data-offset="12"><g><path d="M 0,0 L 12,15.5 V 15.5 Q 12,15.5 22,15.5 H 58.3125 Q 68.3125,15.5 68.3125,5.5 V -5.5 Q 68.3125,-15.5 58.3125,-15.5 H 22 Q 12,-15.5 12,-15.5 V -15.5 z" fill="green" stroke="green"></path><text alignment-baseline="central" dominant-baseline="central" fill="white" style="font: normal 14pt Arial" x="22" y="0">PR3</text></g></g></g></g><g transform="translate(200, 0)"><g><defs><circle cx="14" cy="14" r="14" id="f22689a2c0d3ce089fb4bacc4ea5414586412595" fill="goldenrod"></circle><clipPath id="clip-f22689a2c0d3ce089fb4bacc4ea5414586412595"><use href="#f22689a2c0d3ce089fb4bacc4ea5414586412595" xlink:href="#f22689a2c0d3ce089fb4bacc4ea5414586412595"></use></clipPath></defs><use href="#f22689a2c0d3ce089fb4bacc4ea5414586412595" xlink:href="#f22689a2c0d3ce089fb4bacc4ea5414586412595" clip-path="url(#clip-f22689a2c0d3ce089fb4bacc4ea5414586412595)" stroke="" stroke-width="0"></use></g><g transform="translate(-200, 0)"><g transform="translate(296.59375, 14)"><text alignment-baseline="central" dominant-baseline="central" fill="goldenrod" style="font: normal 14pt Arial">f22689a Merge branch h1</text></g><g transform="translate(250, 0)"><g><rect width="36.59375" height="31" rx="10" fill="white" stroke="goldenrod"></rect><text alignment-baseline="central" dominant-baseline="central" fill="goldenrod" style="font: normal 14pt Arial" x="10" y="15.5">r1</text></g></g></g></g></g></g></svg>